<?xml version="1.0" encoding="UTF-8" standalone="no"?>
<!DOCTYPE svg PUBLIC "-//W3C//DTD SVG 1.1//EN" "http://www.w3.org/Graphics/SVG/1.1/DTD/svg11.dtd">
<!-- Created with Vectornator (http://vectornator.io/) -->
<svg height="100%" stroke-miterlimit="10" style="fill-rule:nonzero;clip-rule:evenodd;stroke-linecap:round;stroke-linejoin:round;" version="1.1" viewBox="0 0 640 512" width="100%" xml:space="preserve" xmlns="http://www.w3.org/2000/svg" xmlns:vectornator="http://vectornator.io" xmlns:xlink="http://www.w3.org/1999/xlink">
<defs/>
<g id="Untitled" vectornator:layerName="Untitled">
<path d="M69.3 4C58.3-3.3 43.4-0.3 36 10.7C28.6 21.7 31.6 36.6 42.7 44L90.7 76C101.7 83.4 116.6 80.4 124 69.3C131.4 58.2 128.4 43.4 117.3 36L69.3 4ZM597.3 44C608.3 36.6 611.3 21.7 604 10.7C596.7-0.3 581.7-3.3 570.7 4L522.7 36C511.7 43.4 508.7 58.3 516 69.3C523.3 80.3 538.3 83.3 549.3 76L597.3 44ZM24 160C10.7 160 0 170.7 0 184C0 197.3 10.7 208 24 208L88 208C101.3 208 112 197.3 112 184C112 170.7 101.3 160 88 160L24 160ZM552 160C538.7 160 528 170.7 528 184C528 197.3 538.7 208 552 208L616 208C629.3 208 640 197.3 640 184C640 170.7 629.3 160 616 160L552 160ZM117.3 332C128.3 324.6 131.3 309.7 124 298.7C116.7 287.7 101.7 284.7 90.7 292L42.7 324C31.7 331.4 28.7 346.3 36 357.3C43.3 368.3 58.3 371.3 69.3 364L117.3 332ZM549.3 292.1C538.3 284.7 523.4 287.7 516 298.8C508.6 309.9 511.6 324.7 522.7 332.1L570.7 364.1C581.7 371.5 596.6 368.5 604 357.4C611.4 346.3 608.4 331.5 597.3 324.1L549.3 292.1ZM448 176C448 203.2 439.6 228.3 425.2 248.9C421.5 254.2 417.2 260.2 412.5 266.6L412.5 266.6L412.5 266.6L412.5 266.6L412.5 266.6C399.6 284.3 384.2 305.5 372.7 326.4C362.3 345.4 357 365.2 354.4 383.9L403 383.9C405.2 371.9 408.9 360.2 414.8 349.4C424.7 331.4 437 314.5 449.3 297.6L449.3 297.6L449.3 297.6L449.3 297.6C454.5 290.5 459.7 283.4 464.7 276.2C484.5 247.7 496.1 213.2 496.1 175.9C496 78.8 417.2 0 320 0C222.8 0 144 78.8 144 176C144 213.3 155.6 247.9 175.4 276.3C180.4 283.5 185.6 290.6 190.8 297.7L190.8 297.7L190.8 297.7C203.1 314.5 215.4 331.4 225.3 349.5C231.2 360.3 234.9 372 237.1 384L285.7 384C283.1 365.3 277.8 345.4 267.4 326.5C255.9 305.6 240.5 284.4 227.6 266.7L227.6 266.7L227.6 266.7C222.9 260.3 218.6 254.3 214.8 249C200.4 228.3 192 203.2 192 176C192 105.3 249.3 48 320 48C390.7 48 448 105.3 448 176ZM272 176C272 149.5 293.5 128 320 128C328.8 128 336 120.8 336 112C336 103.2 328.8 96 320 96C275.8 96 240 131.8 240 176C240 184.8 247.2 192 256 192C264.8 192 272 184.8 272 176ZM400 432L400 416L240 416L240 432C240 476.2 275.8 512 320 512C364.2 512 400 476.2 400 432Z" fill="#eed900" fill-rule="nonzero" opacity="1" stroke="none" vectornator:layerName="path"/>
</g>
</svg>
