<?xml version="1.0" encoding="UTF-8"?>
<!DOCTYPE svg PUBLIC "-//W3C//DTD SVG 1.1//EN" "http://www.w3.org/Graphics/SVG/1.1/DTD/svg11.dtd">
<svg version="1.1" xmlns="http://www.w3.org/2000/svg" xmlns:xlink="http://www.w3.org/1999/xlink" x="0" y="0" width="833" height="306" viewBox="0, 0, 980, 360">
  <g id="Layer_1">
    <g>
      <g>
        <path d="M160,90 C160,128.66 128.66,160 90,160 C51.34,160 20,128.66 20,90 C20,51.34 51.34,20 90,20 C128.66,20 160,51.34 160,90 z" fill="#C1E4F7"/>
        <path d="M160,90 C160,128.66 128.66,160 90,160 C51.34,160 20,128.66 20,90 C20,51.34 51.34,20 90,20 C128.66,20 160,51.34 160,90 z" fill-opacity="0" stroke="#000000" stroke-width="2"/>
      </g>
      <g id="a">
        <path d="M47.65,83 C43.55,83 41.6,80.6 41.4,76.55 C41.15,71.2 46.4,68.85 51.05,71 C51.9,71.4 52.5,72.25 52.9,73.15 L51.3,73.6 C50.65,72.35 49.45,71.6 47.5,71.6 C44.45,71.6 43.1,73.55 43.1,76.55 C43.1,79.6 44.55,81.55 47.65,81.6 C49.4,81.6 50.75,81.05 51.6,80.25 L51.6,78 L47.9,78 L47.9,76.6 L53.15,76.6 L53.15,80.9 C51.9,82.15 50.1,83 47.65,83" fill="#000000" id="t"/>
        <path d="M59.5,73.1 C62.65,73.1 63.8,75.2 63.7,78.4 L56.95,78.4 C56.95,80.4 57.65,81.75 59.6,81.8 C60.9,81.85 61.75,81.2 62.05,80.35 L63.45,80.75 C62.9,82.15 61.6,83 59.6,83 C56.7,83 55.2,81.15 55.25,78 C55.3,74.95 56.55,73.1 59.5,73.1 z M62.1,77.15 C62.4,74.15 58.3,73.3 57.25,75.75 C57.1,76.1 56.95,76.6 56.95,77.15 L62.1,77.15" fill="#000000" id="u"/>
        <path d="M67.45,80.45 C67.35,81.65 68.35,81.9 69.35,81.55 L69.35,82.75 C67.7,83.25 65.85,83 65.85,80.8 L65.85,74.45 L64.75,74.45 L64.75,73.3 L65.95,73.3 L66.4,71.15 L67.45,71.15 L67.45,73.3 L69.2,73.3 L69.2,74.45 L67.45,74.45 L67.45,80.45" fill="#000000" id="v"/>
      </g>
      <g id="b">
        <path d="M84.75,82.8 L83.35,79.2 L77.7,79.2 L76.3,82.8 L74.55,82.8 L79.6,70.4 L81.5,70.4 L86.45,82.8 L84.75,82.8 z M82.85,77.85 L80.5,71.7 C79.9,73.95 78.95,75.8 78.2,77.85 L82.85,77.85" fill="#000000" id="w"/>
        <path d="M91.3,74.35 C89.3,74.35 88.9,76 88.9,78 C88.9,80 89.35,81.75 91.3,81.75 C92.5,81.75 93.35,81.05 93.45,79.85 L95.05,79.95 C94.75,81.8 93.5,83 91.35,83 C88.4,83 87.55,80.95 87.25,78.05 C86.75,73.4 92.3,71.5 94.6,74.85 C94.8,75.2 94.85,75.55 94.95,75.95 L93.35,76.1 C93.15,75.05 92.55,74.35 91.3,74.35" fill="#000000" id="x"/>
        <path d="M100.3,74.35 C98.3,74.35 97.9,76 97.9,78 C97.9,80 98.35,81.75 100.3,81.75 C101.5,81.75 102.35,81.05 102.45,79.85 L104.05,79.95 C103.75,81.8 102.5,83 100.35,83 C97.4,83 96.55,80.95 96.25,78.05 C95.75,73.4 101.3,71.5 103.6,74.85 C103.8,75.2 103.85,75.55 103.95,75.95 L102.35,76.1 C102.15,75.05 101.55,74.35 100.3,74.35" fill="#000000" id="x"/>
        <path d="M109.5,73.1 C112.6,73.05 113.75,74.95 113.75,78.05 C113.8,81.2 112.4,83 109.45,83 C106.5,83 105.3,81.05 105.25,78.05 C105.25,74.75 106.65,73.1 109.5,73.1 z M109.45,81.8 C111.65,81.85 112.1,80.25 112.1,78.05 C112.1,75.9 111.7,74.3 109.55,74.3 C107.4,74.3 106.9,75.9 106.9,78.05 C106.9,80.2 107.4,81.75 109.45,81.8" fill="#000000" id="y"/>
        <path d="M118.7,83 C114.25,83.2 116,77.2 115.65,73.3 L117.25,73.3 L117.25,79.3 C117.25,80.85 117.6,81.8 119.2,81.75 C122.8,81.65 121.45,76.7 121.7,73.3 L123.25,73.3 L123.3,82.8 L121.8,82.8 C121.75,82.3 121.85,81.55 121.7,81.15 C121.15,82.25 120.3,82.95 118.7,83" fill="#000000" id="z"/>
        <path d="M130.35,73.1 C134.8,72.9 133,78.9 133.35,82.8 L131.75,82.8 L131.75,76.75 C131.75,75.2 131.35,74.3 129.8,74.35 C126.2,74.45 127.6,79.45 127.35,82.8 L125.75,82.8 L125.7,73.3 L127.2,73.3 C127.25,73.8 127.15,74.5 127.3,74.9 C127.85,73.8 128.75,73.15 130.35,73.1" fill="#000000" id="A"/>
        <path d="M137.45,80.45 C137.35,81.65 138.35,81.9 139.35,81.55 L139.35,82.75 C137.7,83.25 135.85,83 135.85,80.8 L135.85,74.45 L134.75,74.45 L134.75,73.3 L135.95,73.3 L136.4,71.15 L137.45,71.15 L137.45,73.3 L139.2,73.3 L139.2,74.45 L137.45,74.45 L137.45,80.45" fill="#000000" id="v"/>
      </g>
      <g id="c">
        <path d="M49.2,104.4 L49.2,92 L50.9,92 L50.9,104.4 L49.2,104.4" fill="#000000" id="B"/>
        <path d="M58.4,94.7 C62.85,94.5 61.05,100.5 61.4,104.4 L59.8,104.4 L59.8,98.35 C59.8,96.8 59.4,95.9 57.85,95.95 C54.25,96.05 55.65,101.05 55.4,104.4 L53.8,104.4 L53.75,94.9 L55.25,94.9 C55.3,95.4 55.2,96.1 55.35,96.5 C55.9,95.4 56.8,94.75 58.4,94.7" fill="#000000" id="A"/>
        <path d="M67.6,92.7 C66.05,92.25 65.5,93.2 65.7,94.9 L67.6,94.9 L67.6,96.05 L65.7,96.05 L65.7,104.4 L64.15,104.4 L64.15,96.05 L62.8,96.05 L62.8,94.9 L64.15,94.9 C63.8,92.3 65,90.8 67.6,91.5 L67.6,92.7" fill="#000000" id="C"/>
        <path d="M72.55,94.7 C75.65,94.65 76.8,96.55 76.8,99.65 C76.85,102.8 75.45,104.6 72.5,104.6 C69.55,104.6 68.35,102.65 68.3,99.65 C68.3,96.35 69.7,94.7 72.55,94.7 z M72.5,103.4 C74.7,103.45 75.15,101.85 75.15,99.65 C75.15,97.5 74.75,95.9 72.6,95.9 C70.45,95.9 69.95,97.5 69.95,99.65 C69.95,101.8 70.45,103.35 72.5,103.4" fill="#000000" id="y"/>
        <path d="M83.25,96.25 C79.35,95.45 80.6,100.8 80.4,104.4 L78.8,104.4 L78.75,94.9 L80.25,94.9 C80.3,95.5 80.2,96.35 80.35,96.85 C80.65,95.5 81.5,94.4 83.25,94.8 L83.25,96.25" fill="#000000" id="D"/>
        <path d="M89.35,94.7 C93.8,94.5 92,100.5 92.35,104.4 L90.75,104.4 L90.75,98.35 C90.75,96.8 90.35,95.9 88.8,95.95 C85.2,96.05 86.6,101.05 86.35,104.4 L84.75,104.4 L84.7,94.9 L86.2,94.9 C86.25,95.4 86.15,96.1 86.3,96.5 C86.85,95.4 87.75,94.75 89.35,94.7" fill="#000000" id="A"/>
        <path d="M100.55,102.6 C99.8,103.65 99,104.65 97.15,104.6 C95.35,104.55 94.25,103.55 94.25,101.75 C94.2,98.55 97.4,98.6 100.5,98.6 C100.65,96.85 100.05,95.9 98.45,95.9 C97.25,95.95 96.4,96.25 96.35,97.45 L94.7,97.3 C94.95,95.45 96.35,94.7 98.5,94.7 C100.75,94.7 102.1,95.7 102.1,97.9 L102.1,102 C102.05,103 102.45,103.6 103.5,103.35 L103.5,104.35 C101.95,104.8 100.45,104.25 100.55,102.6 z M95.9,101.75 C95.9,102.75 96.5,103.4 97.5,103.4 C99.55,103.25 100.65,101.95 100.5,99.7 C98.35,99.8 95.9,99.45 95.9,101.75" fill="#000000" id="E"/>
        <path d="M106.45,102.05 C106.35,103.25 107.35,103.5 108.35,103.15 L108.35,104.35 C106.7,104.85 104.85,104.6 104.85,102.4 L104.85,96.05 L103.75,96.05 L103.75,94.9 L104.95,94.9 L105.4,92.75 L106.45,92.75 L106.45,94.9 L108.2,94.9 L108.2,96.05 L106.45,96.05 L106.45,102.05" fill="#000000" id="v"/>
        <path d="M109.7,92.85 L109.7,91.35 L111.3,91.35 L111.3,92.85 L109.7,92.85 z M109.7,104.4 L109.7,94.9 L111.3,94.9 L111.3,104.4 L109.7,104.4" fill="#000000" id="F"/>
        <path d="M117.45,94.7 C120.55,94.65 121.7,96.55 121.7,99.65 C121.75,102.8 120.35,104.6 117.4,104.6 C114.45,104.6 113.25,102.65 113.2,99.65 C113.2,96.35 114.6,94.7 117.45,94.7 z M117.4,103.4 C119.6,103.45 120.05,101.85 120.05,99.65 C120.05,97.5 119.65,95.9 117.5,95.9 C115.35,95.9 114.85,97.5 114.85,99.65 C114.85,101.8 115.35,103.35 117.4,103.4" fill="#000000" id="y"/>
        <path d="M128.3,94.7 C132.75,94.5 130.95,100.5 131.3,104.4 L129.7,104.4 L129.7,98.35 C129.7,96.8 129.3,95.9 127.75,95.95 C124.15,96.05 125.55,101.05 125.3,104.4 L123.7,104.4 L123.65,94.9 L125.15,94.9 C125.2,95.4 125.1,96.1 125.25,96.5 C125.8,95.4 126.7,94.75 128.3,94.7" fill="#000000" id="A"/>
      </g>
      <g>
        <path d="M200,30 L340,30 L340,150 L200,150 z" fill="#C7E8AC"/>
        <path d="M200,30 L340,30 L340,150 L200,150 z" fill-opacity="0" stroke="#000000" stroke-width="2"/>
      </g>
      <g id="a">
        <path d="M227.65,83 C223.55,83 221.6,80.6 221.4,76.55 C221.15,71.2 226.4,68.85 231.05,71 C231.9,71.4 232.5,72.25 232.9,73.15 L231.3,73.6 C230.65,72.35 229.45,71.6 227.5,71.6 C224.45,71.6 223.1,73.55 223.1,76.55 C223.1,79.6 224.55,81.55 227.65,81.6 C229.4,81.6 230.75,81.05 231.6,80.25 L231.6,78 L227.9,78 L227.9,76.6 L233.15,76.6 L233.15,80.9 C231.9,82.15 230.1,83 227.65,83" fill="#000000" id="t"/>
        <path d="M239.5,73.1 C242.65,73.1 243.8,75.2 243.7,78.4 L236.95,78.4 C236.95,80.4 237.65,81.75 239.6,81.8 C240.9,81.85 241.75,81.2 242.05,80.35 L243.45,80.75 C242.9,82.15 241.6,83 239.6,83 C236.7,83 235.2,81.15 235.25,78 C235.3,74.95 236.55,73.1 239.5,73.1 z M242.1,77.15 C242.4,74.15 238.3,73.3 237.25,75.75 C237.1,76.1 236.95,76.6 236.95,77.15 L242.1,77.15" fill="#000000" id="u"/>
        <path d="M247.45,80.45 C247.35,81.65 248.35,81.9 249.35,81.55 L249.35,82.75 C247.7,83.25 245.85,83 245.85,80.8 L245.85,74.45 L244.75,74.45 L244.75,73.3 L245.95,73.3 L246.4,71.15 L247.45,71.15 L247.45,73.3 L249.2,73.3 L249.2,74.45 L247.45,74.45 L247.45,80.45" fill="#000000" id="v"/>
      </g>
      <g id="b">
        <path d="M264.75,82.8 L263.35,79.2 L257.7,79.2 L256.3,82.8 L254.55,82.8 L259.6,70.4 L261.5,70.4 L266.45,82.8 L264.75,82.8 z M262.85,77.85 L260.5,71.7 C259.9,73.95 258.95,75.8 258.2,77.85 L262.85,77.85" fill="#000000" id="w"/>
        <path d="M271.3,74.35 C269.3,74.35 268.9,76 268.9,78 C268.9,80 269.35,81.75 271.3,81.75 C272.5,81.75 273.35,81.05 273.45,79.85 L275.05,79.95 C274.75,81.8 273.5,83 271.35,83 C268.4,83 267.55,80.95 267.25,78.05 C266.75,73.4 272.3,71.5 274.6,74.85 C274.8,75.2 274.85,75.55 274.95,75.95 L273.35,76.1 C273.15,75.05 272.55,74.35 271.3,74.35" fill="#000000" id="x"/>
        <path d="M280.3,74.35 C278.3,74.35 277.9,76 277.9,78 C277.9,80 278.35,81.75 280.3,81.75 C281.5,81.75 282.35,81.05 282.45,79.85 L284.05,79.95 C283.75,81.8 282.5,83 280.35,83 C277.4,83 276.55,80.95 276.25,78.05 C275.75,73.4 281.3,71.5 283.6,74.85 C283.8,75.2 283.85,75.55 283.95,75.95 L282.35,76.1 C282.15,75.05 281.55,74.35 280.3,74.35" fill="#000000" id="x"/>
        <path d="M289.5,73.1 C292.6,73.05 293.75,74.95 293.75,78.05 C293.8,81.2 292.4,83 289.45,83 C286.5,83 285.3,81.05 285.25,78.05 C285.25,74.75 286.65,73.1 289.5,73.1 z M289.45,81.8 C291.65,81.85 292.1,80.25 292.1,78.05 C292.1,75.9 291.7,74.3 289.55,74.3 C287.4,74.3 286.9,75.9 286.9,78.05 C286.9,80.2 287.4,81.75 289.45,81.8" fill="#000000" id="y"/>
        <path d="M298.7,83 C294.25,83.2 296,77.2 295.65,73.3 L297.25,73.3 L297.25,79.3 C297.25,80.85 297.6,81.8 299.2,81.75 C302.8,81.65 301.45,76.7 301.7,73.3 L303.25,73.3 L303.3,82.8 L301.8,82.8 C301.75,82.3 301.85,81.55 301.7,81.15 C301.15,82.25 300.3,82.95 298.7,83" fill="#000000" id="z"/>
        <path d="M310.35,73.1 C314.8,72.9 313,78.9 313.35,82.8 L311.75,82.8 L311.75,76.75 C311.75,75.2 311.35,74.3 309.8,74.35 C306.2,74.45 307.6,79.45 307.35,82.8 L305.75,82.8 L305.7,73.3 L307.2,73.3 C307.25,73.8 307.15,74.5 307.3,74.9 C307.85,73.8 308.75,73.15 310.35,73.1" fill="#000000" id="A"/>
        <path d="M317.45,80.45 C317.35,81.65 318.35,81.9 319.35,81.55 L319.35,82.75 C317.7,83.25 315.85,83 315.85,80.8 L315.85,74.45 L314.75,74.45 L314.75,73.3 L315.95,73.3 L316.4,71.15 L317.45,71.15 L317.45,73.3 L319.2,73.3 L319.2,74.45 L317.45,74.45 L317.45,80.45" fill="#000000" id="v"/>
      </g>
      <g id="d">
        <path d="M235.425,93.4 L235.425,104.4 L233.725,104.4 L233.725,93.4 L229.475,93.4 L229.475,92 L239.675,92 L239.675,93.4 L235.425,93.4" fill="#000000" id="G"/>
        <path d="M243.025,94.7 C246.175,94.7 247.325,96.8 247.225,100 L240.475,100 C240.475,102 241.175,103.35 243.125,103.4 C244.425,103.45 245.275,102.8 245.575,101.95 L246.975,102.35 C246.425,103.75 245.125,104.6 243.125,104.6 C240.225,104.6 238.725,102.75 238.775,99.6 C238.825,96.55 240.075,94.7 243.025,94.7 z M245.625,98.75 C245.925,95.75 241.825,94.9 240.775,97.35 C240.625,97.7 240.475,98.2 240.475,98.75 L245.625,98.75" fill="#000000" id="u"/>
        <path d="M258.525,95.95 C255.175,96.1 256.625,101.2 256.325,104.4 L254.775,104.4 L254.775,98.35 C254.775,96.9 254.525,95.85 253.025,95.95 C249.725,96.15 251.125,101.15 250.825,104.4 L249.275,104.4 L249.225,94.9 L250.725,94.9 C250.775,95.4 250.675,96.1 250.825,96.5 C251.325,94.3 255.775,94 256.175,96.5 C256.725,95.45 257.525,94.75 259.075,94.7 C263.325,94.6 261.425,100.65 261.825,104.4 L260.275,104.4 L260.275,98.35 C260.275,96.9 260.025,95.9 258.525,95.95" fill="#000000" id="H"/>
        <path d="M268.725,94.7 C271.475,94.75 272.225,96.75 272.225,99.6 C272.225,102.45 271.425,104.5 268.725,104.6 C267.175,104.6 266.275,103.95 265.725,102.9 L265.775,108.15 L264.175,108.15 L264.125,94.9 L265.675,94.9 L265.775,96.4 C266.275,95.35 267.175,94.7 268.725,94.7 z M268.325,103.4 C270.325,103.4 270.575,101.7 270.575,99.65 C270.575,97.6 270.275,96 268.325,95.95 C266.225,95.95 265.775,97.55 265.775,99.75 C265.775,101.9 266.275,103.4 268.325,103.4" fill="#000000" id="I"/>
        <path d="M274.175,104.4 L274.175,91.35 L275.775,91.35 L275.775,104.4 L274.175,104.4" fill="#000000" id="J"/>
        <path d="M283.975,102.6 C283.225,103.65 282.425,104.65 280.575,104.6 C278.775,104.55 277.675,103.55 277.675,101.75 C277.625,98.55 280.825,98.6 283.925,98.6 C284.075,96.85 283.475,95.9 281.875,95.9 C280.675,95.95 279.825,96.25 279.775,97.45 L278.125,97.3 C278.375,95.45 279.775,94.7 281.925,94.7 C284.175,94.7 285.525,95.7 285.525,97.9 L285.525,102 C285.475,103 285.875,103.6 286.925,103.35 L286.925,104.35 C285.375,104.8 283.875,104.25 283.975,102.6 z M279.325,101.75 C279.325,102.75 279.925,103.4 280.925,103.4 C282.975,103.25 284.075,101.95 283.925,99.7 C281.775,99.8 279.325,99.45 279.325,101.75" fill="#000000" id="E"/>
        <path d="M289.875,102.05 C289.775,103.25 290.775,103.5 291.775,103.15 L291.775,104.35 C290.125,104.85 288.275,104.6 288.275,102.4 L288.275,96.05 L287.175,96.05 L287.175,94.9 L288.375,94.9 L288.825,92.75 L289.875,92.75 L289.875,94.9 L291.625,94.9 L291.625,96.05 L289.875,96.05 L289.875,102.05" fill="#000000" id="v"/>
        <path d="M296.925,94.7 C300.075,94.7 301.225,96.8 301.125,100 L294.375,100 C294.375,102 295.075,103.35 297.025,103.4 C298.325,103.45 299.175,102.8 299.475,101.95 L300.875,102.35 C300.325,103.75 299.025,104.6 297.025,104.6 C294.125,104.6 292.625,102.75 292.675,99.6 C292.725,96.55 293.975,94.7 296.925,94.7 z M299.525,98.75 C299.825,95.75 295.725,94.9 294.675,97.35 C294.525,97.7 294.375,98.2 294.375,98.75 L299.525,98.75" fill="#000000" id="u"/>
        <path d="M308.675,97.25 C308.525,95.55 304.375,95.35 304.325,97.25 C305.075,99.9 310.075,97.85 310.275,101.75 C310.475,105.65 302.775,105.45 302.425,102.15 L303.825,101.9 C304.025,103.7 308.675,104.15 308.725,101.9 C308.225,99.1 303.075,101.15 302.825,97.4 C302.625,94.55 306.925,94.25 308.925,95.3 C309.525,95.65 309.975,96.25 310.125,97.05" fill="#000000" id="K"/>
      </g>
      <g>
        <path d="M400,30 L540,30 L540,150 L400,150 z" fill="#C7E8AC"/>
        <path d="M400,30 L540,30 L540,150 L400,150 z" fill-opacity="0" stroke="#000000" stroke-width="2"/>
      </g>
      <g id="e">
        <path d="M453.65,73.85 C453.15,72.45 451.9,71.6 450,71.6 C447.05,71.6 445.65,73.6 445.65,76.55 C445.65,79.55 447.1,81.6 450.1,81.6 C452.25,81.6 453.2,80.4 454,79 L455.35,79.7 C454.45,81.6 452.8,83 450,83 C446,83 444.15,80.5 443.95,76.55 C443.65,71.35 448.9,68.9 453.3,71 C454.25,71.45 454.85,72.3 455.25,73.3" fill="#000000" id="L"/>
        <path d="M461.7,74.65 C457.8,73.85 459.05,79.2 458.85,82.8 L457.25,82.8 L457.2,73.3 L458.7,73.3 C458.75,73.9 458.65,74.75 458.8,75.25 C459.1,73.9 459.95,72.8 461.7,73.2 L461.7,74.65" fill="#000000" id="D"/>
        <path d="M466.95,73.1 C470.1,73.1 471.25,75.2 471.15,78.4 L464.4,78.4 C464.4,80.4 465.1,81.75 467.05,81.8 C468.35,81.85 469.2,81.2 469.5,80.35 L470.9,80.75 C470.35,82.15 469.05,83 467.05,83 C464.15,83 462.65,81.15 462.7,78 C462.75,74.95 464,73.1 466.95,73.1 z M469.55,77.15 C469.85,74.15 465.75,73.3 464.7,75.75 C464.55,76.1 464.4,76.6 464.4,77.15 L469.55,77.15" fill="#000000" id="u"/>
        <path d="M479,81 C478.25,82.05 477.45,83.05 475.6,83 C473.8,82.95 472.7,81.95 472.7,80.15 C472.65,76.95 475.85,77 478.95,77 C479.1,75.25 478.5,74.3 476.9,74.3 C475.7,74.35 474.85,74.65 474.8,75.85 L473.15,75.7 C473.4,73.85 474.8,73.1 476.95,73.1 C479.2,73.1 480.55,74.1 480.55,76.3 L480.55,80.4 C480.5,81.4 480.9,82 481.95,81.75 L481.95,82.75 C480.4,83.2 478.9,82.65 479,81 z M474.35,80.15 C474.35,81.15 474.95,81.8 475.95,81.8 C478,81.65 479.1,80.35 478.95,78.1 C476.8,78.2 474.35,77.85 474.35,80.15" fill="#000000" id="E"/>
        <path d="M484.9,80.45 C484.8,81.65 485.8,81.9 486.8,81.55 L486.8,82.75 C485.15,83.25 483.3,83 483.3,80.8 L483.3,74.45 L482.2,74.45 L482.2,73.3 L483.4,73.3 L483.85,71.15 L484.9,71.15 L484.9,73.3 L486.65,73.3 L486.65,74.45 L484.9,74.45 L484.9,80.45" fill="#000000" id="v"/>
        <path d="M491.95,73.1 C495.1,73.1 496.25,75.2 496.15,78.4 L489.4,78.4 C489.4,80.4 490.1,81.75 492.05,81.8 C493.35,81.85 494.2,81.2 494.5,80.35 L495.9,80.75 C495.35,82.15 494.05,83 492.05,83 C489.15,83 487.65,81.15 487.7,78 C487.75,74.95 489,73.1 491.95,73.1 z M494.55,77.15 C494.85,74.15 490.75,73.3 489.7,75.75 C489.55,76.1 489.4,76.6 489.4,77.15 L494.55,77.15" fill="#000000" id="u"/>
      </g>
      <g id="f">
        <path d="M426.55,104.4 L426.55,92 L435.9,92 L435.9,93.4 L428.2,93.4 L428.2,97.35 L435.4,97.35 L435.4,98.7 L428.2,98.7 L428.2,103.05 L436.3,103.05 L436.3,104.4 L426.55,104.4" fill="#000000" id="M"/>
        <path d="M444.1,104.4 L441.55,100.5 L438.95,104.4 L437.25,104.4 L440.65,99.5 L437.4,94.9 L439.15,94.9 L441.55,98.6 L443.9,94.9 L445.65,94.9 L442.45,99.5 L445.85,104.4 L444.1,104.4" fill="#000000" id="N"/>
        <path d="M451.8,94.7 C454.55,94.75 455.3,96.75 455.3,99.6 C455.3,102.45 454.5,104.5 451.8,104.6 C450.25,104.6 449.35,103.95 448.8,102.9 L448.85,108.15 L447.25,108.15 L447.2,94.9 L448.75,94.9 L448.85,96.4 C449.35,95.35 450.25,94.7 451.8,94.7 z M451.4,103.4 C453.4,103.4 453.65,101.7 453.65,99.65 C453.65,97.6 453.35,96 451.4,95.95 C449.3,95.95 448.85,97.55 448.85,99.75 C448.85,101.9 449.35,103.4 451.4,103.4" fill="#000000" id="I"/>
        <path d="M461.05,94.7 C464.2,94.7 465.35,96.8 465.25,100 L458.5,100 C458.5,102 459.2,103.35 461.15,103.4 C462.45,103.45 463.3,102.8 463.6,101.95 L465,102.35 C464.45,103.75 463.15,104.6 461.15,104.6 C458.25,104.6 456.75,102.75 456.8,99.6 C456.85,96.55 458.1,94.7 461.05,94.7 z M463.65,98.75 C463.95,95.75 459.85,94.9 458.8,97.35 C458.65,97.7 458.5,98.2 458.5,98.75 L463.65,98.75" fill="#000000" id="u"/>
        <path d="M471.75,96.25 C467.85,95.45 469.1,100.8 468.9,104.4 L467.3,104.4 L467.25,94.9 L468.75,94.9 C468.8,95.5 468.7,96.35 468.85,96.85 C469.15,95.5 470,94.4 471.75,94.8 L471.75,96.25" fill="#000000" id="D"/>
        <path d="M473.2,92.85 L473.2,91.35 L474.8,91.35 L474.8,92.85 L473.2,92.85 z M473.2,104.4 L473.2,94.9 L474.8,94.9 L474.8,104.4 L473.2,104.4" fill="#000000" id="F"/>
        <path d="M480.95,94.7 C484.1,94.7 485.25,96.8 485.15,100 L478.4,100 C478.4,102 479.1,103.35 481.05,103.4 C482.35,103.45 483.2,102.8 483.5,101.95 L484.9,102.35 C484.35,103.75 483.05,104.6 481.05,104.6 C478.15,104.6 476.65,102.75 476.7,99.6 C476.75,96.55 478,94.7 480.95,94.7 z M483.55,98.75 C483.85,95.75 479.75,94.9 478.7,97.35 C478.55,97.7 478.4,98.2 478.4,98.75 L483.55,98.75" fill="#000000" id="u"/>
        <path d="M491.8,94.7 C496.25,94.5 494.45,100.5 494.8,104.4 L493.2,104.4 L493.2,98.35 C493.2,96.8 492.8,95.9 491.25,95.95 C487.65,96.05 489.05,101.05 488.8,104.4 L487.2,104.4 L487.15,94.9 L488.65,94.9 C488.7,95.4 488.6,96.1 488.75,96.5 C489.3,95.4 490.2,94.75 491.8,94.7" fill="#000000" id="A"/>
        <path d="M500.75,95.95 C498.75,95.95 498.35,97.6 498.35,99.6 C498.35,101.6 498.8,103.35 500.75,103.35 C501.95,103.35 502.8,102.65 502.9,101.45 L504.5,101.55 C504.2,103.4 502.95,104.6 500.8,104.6 C497.85,104.6 497,102.55 496.7,99.65 C496.2,95 501.75,93.1 504.05,96.45 C504.25,96.8 504.3,97.15 504.4,97.55 L502.8,97.7 C502.6,96.65 502,95.95 500.75,95.95" fill="#000000" id="x"/>
        <path d="M509.95,94.7 C513.1,94.7 514.25,96.8 514.15,100 L507.4,100 C507.4,102 508.1,103.35 510.05,103.4 C511.35,103.45 512.2,102.8 512.5,101.95 L513.9,102.35 C513.35,103.75 512.05,104.6 510.05,104.6 C507.15,104.6 505.65,102.75 505.7,99.6 C505.75,96.55 507,94.7 509.95,94.7 z M512.55,98.75 C512.85,95.75 508.75,94.9 507.7,97.35 C507.55,97.7 507.4,98.2 507.4,98.75 L512.55,98.75" fill="#000000" id="u"/>
      </g>
      <g>
        <path d="M672,30 L742,90 L672,150 L602,90 z" fill="#FFECA9"/>
        <path d="M672,30 L742,90 L672,150 L602,90 z" fill-opacity="0" stroke="#000000" stroke-width="2"/>
      </g>
      <g id="g">
        <path d="M645.075,70.4 C649.425,70.45 654.625,69.65 654.625,74.15 C654.625,78.05 650.775,78.15 646.725,77.95 L646.725,82.8 L645.075,82.8 L645.075,70.4 z M646.725,76.65 C649.575,76.65 652.925,77.2 652.925,74.15 C652.925,71.2 649.525,71.8 646.725,71.75 L646.725,76.65" fill="#000000" id="O"/>
        <path d="M656.775,82.8 L656.775,69.75 L658.375,69.75 L658.375,82.8 L656.775,82.8" fill="#000000" id="J"/>
        <path d="M666.575,81 C665.825,82.05 665.025,83.05 663.175,83 C661.375,82.95 660.275,81.95 660.275,80.15 C660.225,76.95 663.425,77 666.525,77 C666.675,75.25 666.075,74.3 664.475,74.3 C663.275,74.35 662.425,74.65 662.375,75.85 L660.725,75.7 C660.975,73.85 662.375,73.1 664.525,73.1 C666.775,73.1 668.125,74.1 668.125,76.3 L668.125,80.4 C668.075,81.4 668.475,82 669.525,81.75 L669.525,82.75 C667.975,83.2 666.475,82.65 666.575,81 z M661.925,80.15 C661.925,81.15 662.525,81.8 663.525,81.8 C665.575,81.65 666.675,80.35 666.525,78.1 C664.375,78.2 661.925,77.85 661.925,80.15" fill="#000000" id="E"/>
        <path d="M678.475,73.3 L674.175,84.35 C673.475,85.75 672.325,86.9 670.125,86.45 L670.125,85.25 C672.075,85.55 672.775,84.25 673.325,82.75 L669.575,73.3 L671.275,73.3 L674.125,81.1 L676.825,73.3 L678.475,73.3" fill="#000000" id="P"/>
        <path d="M679.725,82.8 L679.725,69.75 L681.325,69.75 L681.325,82.8 L679.725,82.8" fill="#000000" id="J"/>
        <path d="M683.675,71.25 L683.675,69.75 L685.275,69.75 L685.275,71.25 L683.675,71.25 z M683.675,82.8 L683.675,73.3 L685.275,73.3 L685.275,82.8 L683.675,82.8" fill="#000000" id="F"/>
        <path d="M693.175,75.65 C693.025,73.95 688.875,73.75 688.825,75.65 C689.575,78.3 694.575,76.25 694.775,80.15 C694.975,84.05 687.275,83.85 686.925,80.55 L688.325,80.3 C688.525,82.1 693.175,82.55 693.225,80.3 C692.725,77.5 687.575,79.55 687.325,75.8 C687.125,72.95 691.425,72.65 693.425,73.7 C694.025,74.05 694.475,74.65 694.625,75.45" fill="#000000" id="K"/>
        <path d="M698.375,80.45 C698.275,81.65 699.275,81.9 700.275,81.55 L700.275,82.75 C698.625,83.25 696.775,83 696.775,80.8 L696.775,74.45 L695.675,74.45 L695.675,73.3 L696.875,73.3 L697.325,71.15 L698.375,71.15 L698.375,73.3 L700.125,73.3 L700.125,74.45 L698.375,74.45 L698.375,80.45" fill="#000000" id="v"/>
      </g>
      <g id="h">
        <path d="M636.925,93.4 L636.925,104.4 L635.225,104.4 L635.225,93.4 L630.975,93.4 L630.975,92 L641.175,92 L641.175,93.4 L636.925,93.4" fill="#000000" id="G"/>
        <path d="M644.525,94.7 C647.675,94.7 648.825,96.8 648.725,100 L641.975,100 C641.975,102 642.675,103.35 644.625,103.4 C645.925,103.45 646.775,102.8 647.075,101.95 L648.475,102.35 C647.925,103.75 646.625,104.6 644.625,104.6 C641.725,104.6 640.225,102.75 640.275,99.6 C640.325,96.55 641.575,94.7 644.525,94.7 z M647.125,98.75 C647.425,95.75 643.325,94.9 642.275,97.35 C642.125,97.7 641.975,98.2 641.975,98.75 L647.125,98.75" fill="#000000" id="u"/>
        <path d="M660.025,95.95 C656.675,96.1 658.125,101.2 657.825,104.4 L656.275,104.4 L656.275,98.35 C656.275,96.9 656.025,95.85 654.525,95.95 C651.225,96.15 652.625,101.15 652.325,104.4 L650.775,104.4 L650.725,94.9 L652.225,94.9 C652.275,95.4 652.175,96.1 652.325,96.5 C652.825,94.3 657.275,94 657.675,96.5 C658.225,95.45 659.025,94.75 660.575,94.7 C664.825,94.6 662.925,100.65 663.325,104.4 L661.775,104.4 L661.775,98.35 C661.775,96.9 661.525,95.9 660.025,95.95" fill="#000000" id="H"/>
        <path d="M670.225,94.7 C672.975,94.75 673.725,96.75 673.725,99.6 C673.725,102.45 672.925,104.5 670.225,104.6 C668.675,104.6 667.775,103.95 667.225,102.9 L667.275,108.15 L665.675,108.15 L665.625,94.9 L667.175,94.9 L667.275,96.4 C667.775,95.35 668.675,94.7 670.225,94.7 z M669.825,103.4 C671.825,103.4 672.075,101.7 672.075,99.65 C672.075,97.6 671.775,96 669.825,95.95 C667.725,95.95 667.275,97.55 667.275,99.75 C667.275,101.9 667.775,103.4 669.825,103.4" fill="#000000" id="I"/>
        <path d="M675.675,104.4 L675.675,91.35 L677.275,91.35 L677.275,104.4 L675.675,104.4" fill="#000000" id="J"/>
        <path d="M685.475,102.6 C684.725,103.65 683.925,104.65 682.075,104.6 C680.275,104.55 679.175,103.55 679.175,101.75 C679.125,98.55 682.325,98.6 685.425,98.6 C685.575,96.85 684.975,95.9 683.375,95.9 C682.175,95.95 681.325,96.25 681.275,97.45 L679.625,97.3 C679.875,95.45 681.275,94.7 683.425,94.7 C685.675,94.7 687.025,95.7 687.025,97.9 L687.025,102 C686.975,103 687.375,103.6 688.425,103.35 L688.425,104.35 C686.875,104.8 685.375,104.25 685.475,102.6 z M680.825,101.75 C680.825,102.75 681.425,103.4 682.425,103.4 C684.475,103.25 685.575,101.95 685.425,99.7 C683.275,99.8 680.825,99.45 680.825,101.75" fill="#000000" id="E"/>
        <path d="M691.375,102.05 C691.275,103.25 692.275,103.5 693.275,103.15 L693.275,104.35 C691.625,104.85 689.775,104.6 689.775,102.4 L689.775,96.05 L688.675,96.05 L688.675,94.9 L689.875,94.9 L690.325,92.75 L691.375,92.75 L691.375,94.9 L693.125,94.9 L693.125,96.05 L691.375,96.05 L691.375,102.05" fill="#000000" id="v"/>
        <path d="M698.425,94.7 C701.575,94.7 702.725,96.8 702.625,100 L695.875,100 C695.875,102 696.575,103.35 698.525,103.4 C699.825,103.45 700.675,102.8 700.975,101.95 L702.375,102.35 C701.825,103.75 700.525,104.6 698.525,104.6 C695.625,104.6 694.125,102.75 694.175,99.6 C694.225,96.55 695.475,94.7 698.425,94.7 z M701.025,98.75 C701.325,95.75 697.225,94.9 696.175,97.35 C696.025,97.7 695.875,98.2 695.875,98.75 L701.025,98.75" fill="#000000" id="u"/>
        <path d="M708.575,91.85 C712.775,91.85 714.125,96.7 710.825,98.5 C709.875,99 708.975,99.7 708.875,101.1 L707.325,101.1 C707.325,97.95 711.175,98.35 711.175,95.4 C711.175,93.9 710.125,93.3 708.575,93.25 C706.975,93.25 705.925,94.1 705.775,95.55 L704.175,95.45 C704.525,93.2 705.875,91.85 708.575,91.85 z M707.275,104.4 L707.275,102.65 L708.975,102.65 L708.975,104.4 L707.275,104.4" fill="#000000" id="Q"/>
      </g>
      <g>
        <path d="M820,30 L960,30 L960,150 L820,150 z" fill="#C7E8AC"/>
        <path d="M820,30 L960,30 L960,150 L820,150 z" fill-opacity="0" stroke="#000000" stroke-width="2"/>
      </g>
      <g id="i">
        <path d="M847.225,93.8 C843.125,93.8 841.175,91.4 840.975,87.35 C840.725,82 845.975,79.65 850.625,81.8 C851.475,82.2 852.075,83.05 852.475,83.95 L850.875,84.4 C850.225,83.15 849.025,82.4 847.075,82.4 C844.025,82.4 842.675,84.35 842.675,87.35 C842.675,90.4 844.125,92.35 847.225,92.4 C848.975,92.4 850.325,91.85 851.175,91.05 L851.175,88.8 L847.475,88.8 L847.475,87.4 L852.725,87.4 L852.725,91.7 C851.475,92.95 849.675,93.8 847.225,93.8" fill="#000000" id="t"/>
        <path d="M859.075,83.9 C862.225,83.9 863.375,86 863.275,89.2 L856.525,89.2 C856.525,91.2 857.225,92.55 859.175,92.6 C860.475,92.65 861.325,92 861.625,91.15 L863.025,91.55 C862.475,92.95 861.175,93.8 859.175,93.8 C856.275,93.8 854.775,91.95 854.825,88.8 C854.875,85.75 856.125,83.9 859.075,83.9 z M861.675,87.95 C861.975,84.95 857.875,84.1 856.825,86.55 C856.675,86.9 856.525,87.4 856.525,87.95 L861.675,87.95" fill="#000000" id="u"/>
        <path d="M867.025,91.25 C866.925,92.45 867.925,92.7 868.925,92.35 L868.925,93.55 C867.275,94.05 865.425,93.8 865.425,91.6 L865.425,85.25 L864.325,85.25 L864.325,84.1 L865.525,84.1 L865.975,81.95 L867.025,81.95 L867.025,84.1 L868.775,84.1 L868.775,85.25 L867.025,85.25 L867.025,91.25" fill="#000000" id="v"/>
      </g>
      <g id="j">
        <path d="M875.575,81.2 C879.925,81.25 885.125,80.45 885.125,84.95 C885.125,88.85 881.275,88.95 877.225,88.75 L877.225,93.6 L875.575,93.6 L875.575,81.2 z M877.225,87.45 C880.075,87.45 883.425,88 883.425,84.95 C883.425,82 880.025,82.6 877.225,82.55 L877.225,87.45" fill="#000000" id="O"/>
        <path d="M887.275,93.6 L887.275,80.55 L888.875,80.55 L888.875,93.6 L887.275,93.6" fill="#000000" id="J"/>
        <path d="M897.075,91.8 C896.325,92.85 895.525,93.85 893.675,93.8 C891.875,93.75 890.775,92.75 890.775,90.95 C890.725,87.75 893.925,87.8 897.025,87.8 C897.175,86.05 896.575,85.1 894.975,85.1 C893.775,85.15 892.925,85.45 892.875,86.65 L891.225,86.5 C891.475,84.65 892.875,83.9 895.025,83.9 C897.275,83.9 898.625,84.9 898.625,87.1 L898.625,91.2 C898.575,92.2 898.975,92.8 900.025,92.55 L900.025,93.55 C898.475,94 896.975,93.45 897.075,91.8 z M892.425,90.95 C892.425,91.95 893.025,92.6 894.025,92.6 C896.075,92.45 897.175,91.15 897.025,88.9 C894.875,89 892.425,88.65 892.425,90.95" fill="#000000" id="E"/>
        <path d="M908.975,84.1 L904.675,95.15 C903.975,96.55 902.825,97.7 900.625,97.25 L900.625,96.05 C902.575,96.35 903.275,95.05 903.825,93.55 L900.075,84.1 L901.775,84.1 L904.625,91.9 L907.325,84.1 L908.975,84.1" fill="#000000" id="P"/>
        <path d="M910.225,93.6 L910.225,80.55 L911.825,80.55 L911.825,93.6 L910.225,93.6" fill="#000000" id="J"/>
        <path d="M914.175,82.05 L914.175,80.55 L915.775,80.55 L915.775,82.05 L914.175,82.05 z M914.175,93.6 L914.175,84.1 L915.775,84.1 L915.775,93.6 L914.175,93.6" fill="#000000" id="F"/>
        <path d="M923.675,86.45 C923.525,84.75 919.375,84.55 919.325,86.45 C920.075,89.1 925.075,87.05 925.275,90.95 C925.475,94.85 917.775,94.65 917.425,91.35 L918.825,91.1 C919.025,92.9 923.675,93.35 923.725,91.1 C923.225,88.3 918.075,90.35 917.825,86.6 C917.625,83.75 921.925,83.45 923.925,84.5 C924.525,84.85 924.975,85.45 925.125,86.25" fill="#000000" id="K"/>
        <path d="M928.875,91.25 C928.775,92.45 929.775,92.7 930.775,92.35 L930.775,93.55 C929.125,94.05 927.275,93.8 927.275,91.6 L927.275,85.25 L926.175,85.25 L926.175,84.1 L927.375,84.1 L927.825,81.95 L928.875,81.95 L928.875,84.1 L930.625,84.1 L930.625,85.25 L928.875,85.25 L928.875,91.25" fill="#000000" id="v"/>
        <path d="M937.675,86.45 C937.525,84.75 933.375,84.55 933.325,86.45 C934.075,89.1 939.075,87.05 939.275,90.95 C939.475,94.85 931.775,94.65 931.425,91.35 L932.825,91.1 C933.025,92.9 937.675,93.35 937.725,91.1 C937.225,88.3 932.075,90.35 931.825,86.6 C931.625,83.75 935.925,83.45 937.925,84.5 C938.525,84.85 938.975,85.45 939.125,86.25" fill="#000000" id="K"/>
      </g>
      <g>
        <path d="M602,220 L742,220 L742,340 L602,340 z" fill="#C7E8AC"/>
        <path d="M602,220 L742,220 L742,340 L602,340 z" fill-opacity="0" stroke="#000000" stroke-width="2"/>
      </g>
      <g id="i">
        <path d="M634.85,283.8 C630.75,283.8 628.8,281.4 628.6,277.35 C628.35,272 633.6,269.65 638.25,271.8 C639.1,272.2 639.7,273.05 640.1,273.95 L638.5,274.4 C637.85,273.15 636.65,272.4 634.7,272.4 C631.65,272.4 630.3,274.35 630.3,277.35 C630.3,280.4 631.75,282.35 634.85,282.4 C636.6,282.4 637.95,281.85 638.8,281.05 L638.8,278.8 L635.1,278.8 L635.1,277.4 L640.35,277.4 L640.35,281.7 C639.1,282.95 637.3,283.8 634.85,283.8" fill="#000000" id="t"/>
        <path d="M646.7,273.9 C649.85,273.9 651,276 650.9,279.2 L644.15,279.2 C644.15,281.2 644.85,282.55 646.8,282.6 C648.1,282.65 648.95,282 649.25,281.15 L650.65,281.55 C650.1,282.95 648.8,283.8 646.8,283.8 C643.9,283.8 642.4,281.95 642.45,278.8 C642.5,275.75 643.75,273.9 646.7,273.9 z M649.3,277.95 C649.6,274.95 645.5,274.1 644.45,276.55 C644.3,276.9 644.15,277.4 644.15,277.95 L649.3,277.95" fill="#000000" id="u"/>
        <path d="M654.65,281.25 C654.55,282.45 655.55,282.7 656.55,282.35 L656.55,283.55 C654.9,284.05 653.05,283.8 653.05,281.6 L653.05,275.25 L651.95,275.25 L651.95,274.1 L653.15,274.1 L653.6,271.95 L654.65,271.95 L654.65,274.1 L656.4,274.1 L656.4,275.25 L654.65,275.25 L654.65,281.25" fill="#000000" id="v"/>
      </g>
      <g id="k">
        <path d="M668.55,283.6 L666.85,283.6 L661.8,271.2 L663.55,271.2 L667.7,282.1 L671.85,271.2 L673.65,271.2" fill="#000000" id="R"/>
        <path d="M674.55,272.05 L674.55,270.55 L676.15,270.55 L676.15,272.05 L674.55,272.05 z M674.55,283.6 L674.55,274.1 L676.15,274.1 L676.15,283.6 L674.55,283.6" fill="#000000" id="F"/>
        <path d="M681.55,273.9 C683.1,273.9 683.95,274.55 684.55,275.55 L684.5,270.55 L686.1,270.55 L686.15,283.6 L684.65,283.6 C684.55,283.1 684.65,282.45 684.5,282.05 C684,283.2 683.1,283.8 681.55,283.8 C678.9,283.8 678.1,281.85 678.05,278.9 C678.05,275.6 679.2,273.9 681.55,273.9 z M682,275.1 C680,275.1 679.7,276.8 679.7,278.85 C679.7,280.85 680,282.55 681.95,282.55 C684.05,282.55 684.5,280.95 684.5,278.75 C684.5,276.65 684.05,275.05 682,275.1" fill="#000000" id="S"/>
        <path d="M692.3,273.9 C695.45,273.9 696.6,276 696.5,279.2 L689.75,279.2 C689.75,281.2 690.45,282.55 692.4,282.6 C693.7,282.65 694.55,282 694.85,281.15 L696.25,281.55 C695.7,282.95 694.4,283.8 692.4,283.8 C689.5,283.8 688,281.95 688.05,278.8 C688.1,275.75 689.35,273.9 692.3,273.9 z M694.9,277.95 C695.2,274.95 691.1,274.1 690.05,276.55 C689.9,276.9 689.75,277.4 689.75,277.95 L694.9,277.95" fill="#000000" id="u"/>
        <path d="M702.3,273.9 C705.4,273.85 706.55,275.75 706.55,278.85 C706.6,282 705.2,283.8 702.25,283.8 C699.3,283.8 698.1,281.85 698.05,278.85 C698.05,275.55 699.45,273.9 702.3,273.9 z M702.25,282.6 C704.45,282.65 704.9,281.05 704.9,278.85 C704.9,276.7 704.5,275.1 702.35,275.1 C700.2,275.1 699.7,276.7 699.7,278.85 C699.7,281 700.2,282.55 702.25,282.6" fill="#000000" id="y"/>
        <path d="M714.05,276.45 C713.9,274.75 709.75,274.55 709.7,276.45 C710.45,279.1 715.45,277.05 715.65,280.95 C715.85,284.85 708.15,284.65 707.8,281.35 L709.2,281.1 C709.4,282.9 714.05,283.35 714.1,281.1 C713.6,278.3 708.45,280.35 708.2,276.6 C708,273.75 712.3,273.45 714.3,274.5 C714.9,274.85 715.35,275.45 715.5,276.25" fill="#000000" id="K"/>
      </g>
      <g>
        <path d="M820,220 L960,220 L960,340 L820,340 z" fill="#C7E8AC"/>
        <path d="M820,220 L960,220 L960,340 L820,340 z" fill-opacity="0" stroke="#000000" stroke-width="2"/>
      </g>
      <g id="l">
        <path d="M872.625,257.35 C872.575,260.6 870.625,262.2 867.425,262.2 C864.375,262.2 862.425,260.6 862.425,257.5 L862.425,249.6 L864.075,249.6 C864.475,254.05 862.425,260.8 867.425,260.8 C872.525,260.8 870.625,254.15 870.975,249.6 L872.625,249.6 L872.625,257.35" fill="#000000" id="T"/>
        <path d="M879.725,252.3 C882.475,252.35 883.225,254.35 883.225,257.2 C883.225,260.05 882.425,262.1 879.725,262.2 C878.175,262.2 877.275,261.55 876.725,260.5 L876.775,265.75 L875.175,265.75 L875.125,252.5 L876.675,252.5 L876.775,254 C877.275,252.95 878.175,252.3 879.725,252.3 z M879.325,261 C881.325,261 881.575,259.3 881.575,257.25 C881.575,255.2 881.275,253.6 879.325,253.55 C877.225,253.55 876.775,255.15 876.775,257.35 C876.775,259.5 877.275,261 879.325,261" fill="#000000" id="I"/>
        <path d="M888.225,252.3 C889.775,252.3 890.625,252.95 891.225,253.95 L891.175,248.95 L892.775,248.95 L892.825,262 L891.325,262 C891.225,261.5 891.325,260.85 891.175,260.45 C890.675,261.6 889.775,262.2 888.225,262.2 C885.575,262.2 884.775,260.25 884.725,257.3 C884.725,254 885.875,252.3 888.225,252.3 z M888.675,253.5 C886.675,253.5 886.375,255.2 886.375,257.25 C886.375,259.25 886.675,260.95 888.625,260.95 C890.725,260.95 891.175,259.35 891.175,257.15 C891.175,255.05 890.725,253.45 888.675,253.5" fill="#000000" id="S"/>
        <path d="M901.025,260.2 C900.275,261.25 899.475,262.25 897.625,262.2 C895.825,262.15 894.725,261.15 894.725,259.35 C894.675,256.15 897.875,256.2 900.975,256.2 C901.125,254.45 900.525,253.5 898.925,253.5 C897.725,253.55 896.875,253.85 896.825,255.05 L895.175,254.9 C895.425,253.05 896.825,252.3 898.975,252.3 C901.225,252.3 902.575,253.3 902.575,255.5 L902.575,259.6 C902.525,260.6 902.925,261.2 903.975,260.95 L903.975,261.95 C902.425,262.4 900.925,261.85 901.025,260.2 z M896.375,259.35 C896.375,260.35 896.975,261 897.975,261 C900.025,260.85 901.125,259.55 900.975,257.3 C898.825,257.4 896.375,257.05 896.375,259.35" fill="#000000" id="E"/>
        <path d="M906.925,259.65 C906.825,260.85 907.825,261.1 908.825,260.75 L908.825,261.95 C907.175,262.45 905.325,262.2 905.325,260 L905.325,253.65 L904.225,253.65 L904.225,252.5 L905.425,252.5 L905.875,250.35 L906.925,250.35 L906.925,252.5 L908.675,252.5 L908.675,253.65 L906.925,253.65 L906.925,259.65" fill="#000000" id="v"/>
        <path d="M913.975,252.3 C917.125,252.3 918.275,254.4 918.175,257.6 L911.425,257.6 C911.425,259.6 912.125,260.95 914.075,261 C915.375,261.05 916.225,260.4 916.525,259.55 L917.925,259.95 C917.375,261.35 916.075,262.2 914.075,262.2 C911.175,262.2 909.675,260.35 909.725,257.2 C909.775,254.15 911.025,252.3 913.975,252.3 z M916.575,256.35 C916.875,253.35 912.775,252.5 911.725,254.95 C911.575,255.3 911.425,255.8 911.425,256.35 L916.575,256.35" fill="#000000" id="u"/>
      </g>
      <g id="m">
        <path d="M828.1,283.6 L828.1,271.2 L837.45,271.2 L837.45,272.6 L829.75,272.6 L829.75,276.55 L836.95,276.55 L836.95,277.9 L829.75,277.9 L829.75,282.25 L837.85,282.25 L837.85,283.6 L828.1,283.6" fill="#000000" id="M"/>
        <path d="M845.65,283.6 L843.1,279.7 L840.5,283.6 L838.8,283.6 L842.2,278.7 L838.95,274.1 L840.7,274.1 L843.1,277.8 L845.45,274.1 L847.2,274.1 L844,278.7 L847.4,283.6 L845.65,283.6" fill="#000000" id="N"/>
        <path d="M853.35,273.9 C856.1,273.95 856.85,275.95 856.85,278.8 C856.85,281.65 856.05,283.7 853.35,283.8 C851.8,283.8 850.9,283.15 850.35,282.1 L850.4,287.35 L848.8,287.35 L848.75,274.1 L850.3,274.1 L850.4,275.6 C850.9,274.55 851.8,273.9 853.35,273.9 z M852.95,282.6 C854.95,282.6 855.2,280.9 855.2,278.85 C855.2,276.8 854.9,275.2 852.95,275.15 C850.85,275.15 850.4,276.75 850.4,278.95 C850.4,281.1 850.9,282.6 852.95,282.6" fill="#000000" id="I"/>
        <path d="M862.6,273.9 C865.75,273.9 866.9,276 866.8,279.2 L860.05,279.2 C860.05,281.2 860.75,282.55 862.7,282.6 C864,282.65 864.85,282 865.15,281.15 L866.55,281.55 C866,282.95 864.7,283.8 862.7,283.8 C859.8,283.8 858.3,281.95 858.35,278.8 C858.4,275.75 859.65,273.9 862.6,273.9 z M865.2,277.95 C865.5,274.95 861.4,274.1 860.35,276.55 C860.2,276.9 860.05,277.4 860.05,277.95 L865.2,277.95" fill="#000000" id="u"/>
        <path d="M873.3,275.45 C869.4,274.65 870.65,280 870.45,283.6 L868.85,283.6 L868.8,274.1 L870.3,274.1 C870.35,274.7 870.25,275.55 870.4,276.05 C870.7,274.7 871.55,273.6 873.3,274 L873.3,275.45" fill="#000000" id="D"/>
        <path d="M874.75,272.05 L874.75,270.55 L876.35,270.55 L876.35,272.05 L874.75,272.05 z M874.75,283.6 L874.75,274.1 L876.35,274.1 L876.35,283.6 L874.75,283.6" fill="#000000" id="F"/>
        <path d="M882.5,273.9 C885.65,273.9 886.8,276 886.7,279.2 L879.95,279.2 C879.95,281.2 880.65,282.55 882.6,282.6 C883.9,282.65 884.75,282 885.05,281.15 L886.45,281.55 C885.9,282.95 884.6,283.8 882.6,283.8 C879.7,283.8 878.2,281.95 878.25,278.8 C878.3,275.75 879.55,273.9 882.5,273.9 z M885.1,277.95 C885.4,274.95 881.3,274.1 880.25,276.55 C880.1,276.9 879.95,277.4 879.95,277.95 L885.1,277.95" fill="#000000" id="u"/>
        <path d="M893.35,273.9 C897.8,273.7 896,279.7 896.35,283.6 L894.75,283.6 L894.75,277.55 C894.75,276 894.35,275.1 892.8,275.15 C889.2,275.25 890.6,280.25 890.35,283.6 L888.75,283.6 L888.7,274.1 L890.2,274.1 C890.25,274.6 890.15,275.3 890.3,275.7 C890.85,274.6 891.75,273.95 893.35,273.9" fill="#000000" id="A"/>
        <path d="M902.3,275.15 C900.3,275.15 899.9,276.8 899.9,278.8 C899.9,280.8 900.35,282.55 902.3,282.55 C903.5,282.55 904.35,281.85 904.45,280.65 L906.05,280.75 C905.75,282.6 904.5,283.8 902.35,283.8 C899.4,283.8 898.55,281.75 898.25,278.85 C897.75,274.2 903.3,272.3 905.6,275.65 C905.8,276 905.85,276.35 905.95,276.75 L904.35,276.9 C904.15,275.85 903.55,275.15 902.3,275.15" fill="#000000" id="x"/>
        <path d="M911.5,273.9 C914.65,273.9 915.8,276 915.7,279.2 L908.95,279.2 C908.95,281.2 909.65,282.55 911.6,282.6 C912.9,282.65 913.75,282 914.05,281.15 L915.45,281.55 C914.9,282.95 913.6,283.8 911.6,283.8 C908.7,283.8 907.2,281.95 907.25,278.8 C907.3,275.75 908.55,273.9 911.5,273.9 z M914.1,277.95 C914.4,274.95 910.3,274.1 909.25,276.55 C909.1,276.9 908.95,277.4 908.95,277.95 L914.1,277.95" fill="#000000" id="u"/>
      </g>
      <g id="n">
        <path d="M931.8,283.6 L930,283.6 L928,275.4 L925.95,283.6 L924.15,283.6 L921.45,274.1 L923.05,274.1 L925,282.3 L927.15,274.1 L928.85,274.1 L930.9,282.3 L933,274.1 L934.55,274.1" fill="#000000" id="U"/>
        <path d="M935.65,272.05 L935.65,270.55 L937.25,270.55 L937.25,272.05 L935.65,272.05 z M935.65,283.6 L935.65,274.1 L937.25,274.1 L937.25,283.6 L935.65,283.6" fill="#000000" id="F"/>
        <path d="M941.35,281.25 C941.25,282.45 942.25,282.7 943.25,282.35 L943.25,283.55 C941.6,284.05 939.75,283.8 939.75,281.6 L939.75,275.25 L938.65,275.25 L938.65,274.1 L939.85,274.1 L940.3,271.95 L941.35,271.95 L941.35,274.1 L943.1,274.1 L943.1,275.25 L941.35,275.25 L941.35,281.25" fill="#000000" id="v"/>
        <path d="M948.7,275.15 C945.1,275.15 946.5,280.25 946.25,283.6 L944.65,283.6 L944.65,270.55 L946.25,270.55 L946.2,275.7 C946.8,274.65 947.6,273.9 949.25,273.9 C953.7,273.9 951.9,279.7 952.25,283.6 L950.65,283.6 L950.65,277.55 C950.75,275.95 950.25,275.1 948.7,275.15" fill="#000000" id="V"/>
      </g>
      <g id="o">
        <path d="M832.65,305.2 L830.95,305.2 L825.9,292.8 L827.65,292.8 L831.8,303.7 L835.95,292.8 L837.75,292.8" fill="#000000" id="R"/>
        <path d="M838.65,293.65 L838.65,292.15 L840.25,292.15 L840.25,293.65 L838.65,293.65 z M838.65,305.2 L838.65,295.7 L840.25,295.7 L840.25,305.2 L838.65,305.2" fill="#000000" id="F"/>
        <path d="M845.65,295.5 C847.2,295.5 848.05,296.15 848.65,297.15 L848.6,292.15 L850.2,292.15 L850.25,305.2 L848.75,305.2 C848.65,304.7 848.75,304.05 848.6,303.65 C848.1,304.8 847.2,305.4 845.65,305.4 C843,305.4 842.2,303.45 842.15,300.5 C842.15,297.2 843.3,295.5 845.65,295.5 z M846.1,296.7 C844.1,296.7 843.8,298.4 843.8,300.45 C843.8,302.45 844.1,304.15 846.05,304.15 C848.15,304.15 848.6,302.55 848.6,300.35 C848.6,298.25 848.15,296.65 846.1,296.7" fill="#000000" id="S"/>
        <path d="M856.4,295.5 C859.55,295.5 860.7,297.6 860.6,300.8 L853.85,300.8 C853.85,302.8 854.55,304.15 856.5,304.2 C857.8,304.25 858.65,303.6 858.95,302.75 L860.35,303.15 C859.8,304.55 858.5,305.4 856.5,305.4 C853.6,305.4 852.1,303.55 852.15,300.4 C852.2,297.35 853.45,295.5 856.4,295.5 z M859,299.55 C859.3,296.55 855.2,295.7 854.15,298.15 C854,298.5 853.85,299 853.85,299.55 L859,299.55" fill="#000000" id="u"/>
        <path d="M866.4,295.5 C869.5,295.45 870.65,297.35 870.65,300.45 C870.7,303.6 869.3,305.4 866.35,305.4 C863.4,305.4 862.2,303.45 862.15,300.45 C862.15,297.15 863.55,295.5 866.4,295.5 z M866.35,304.2 C868.55,304.25 869,302.65 869,300.45 C869,298.3 868.6,296.7 866.45,296.7 C864.3,296.7 863.8,298.3 863.8,300.45 C863.8,302.6 864.3,304.15 866.35,304.2" fill="#000000" id="y"/>
      </g>
      <g id="p">
        <path d="M881.4,295.5 C884.5,295.45 885.65,297.35 885.65,300.45 C885.7,303.6 884.3,305.4 881.35,305.4 C878.4,305.4 877.2,303.45 877.15,300.45 C877.15,297.15 878.55,295.5 881.4,295.5 z M881.35,304.2 C883.55,304.25 884,302.65 884,300.45 C884,298.3 883.6,296.7 881.45,296.7 C879.3,296.7 878.8,298.3 878.8,300.45 C878.8,302.6 879.3,304.15 881.35,304.2" fill="#000000" id="y"/>
        <path d="M892.1,297.05 C888.2,296.25 889.45,301.6 889.25,305.2 L887.65,305.2 L887.6,295.7 L889.1,295.7 C889.15,296.3 889.05,297.15 889.2,297.65 C889.5,296.3 890.35,295.2 892.1,295.6 L892.1,297.05" fill="#000000" id="D"/>
      </g>
      <g id="q">
        <path d="M898.85,292.8 C903.2,292.85 908.4,292.05 908.4,296.55 C908.4,300.45 904.55,300.55 900.5,300.35 L900.5,305.2 L898.85,305.2 L898.85,292.8 z M900.5,299.05 C903.35,299.05 906.7,299.6 906.7,296.55 C906.7,293.6 903.3,294.2 900.5,294.15 L900.5,299.05" fill="#000000" id="O"/>
        <path d="M910.55,305.2 L910.55,292.15 L912.15,292.15 L912.15,305.2 L910.55,305.2" fill="#000000" id="J"/>
        <path d="M920.35,303.4 C919.6,304.45 918.8,305.45 916.95,305.4 C915.15,305.35 914.05,304.35 914.05,302.55 C914,299.35 917.2,299.4 920.3,299.4 C920.45,297.65 919.85,296.7 918.25,296.7 C917.05,296.75 916.2,297.05 916.15,298.25 L914.5,298.1 C914.75,296.25 916.15,295.5 918.3,295.5 C920.55,295.5 921.9,296.5 921.9,298.7 L921.9,302.8 C921.85,303.8 922.25,304.4 923.3,304.15 L923.3,305.15 C921.75,305.6 920.25,305.05 920.35,303.4 z M915.7,302.55 C915.7,303.55 916.3,304.2 917.3,304.2 C919.35,304.05 920.45,302.75 920.3,300.5 C918.15,300.6 915.7,300.25 915.7,302.55" fill="#000000" id="E"/>
        <path d="M932.25,295.7 L927.95,306.75 C927.25,308.15 926.1,309.3 923.9,308.85 L923.9,307.65 C925.85,307.95 926.55,306.65 927.1,305.15 L923.35,295.7 L925.05,295.7 L927.9,303.5 L930.6,295.7 L932.25,295.7" fill="#000000" id="P"/>
        <path d="M933.5,305.2 L933.5,292.15 L935.1,292.15 L935.1,305.2 L933.5,305.2" fill="#000000" id="J"/>
        <path d="M937.45,293.65 L937.45,292.15 L939.05,292.15 L939.05,293.65 L937.45,293.65 z M937.45,305.2 L937.45,295.7 L939.05,295.7 L939.05,305.2 L937.45,305.2" fill="#000000" id="F"/>
        <path d="M946.95,298.05 C946.8,296.35 942.65,296.15 942.6,298.05 C943.35,300.7 948.35,298.65 948.55,302.55 C948.75,306.45 941.05,306.25 940.7,302.95 L942.1,302.7 C942.3,304.5 946.95,304.95 947,302.7 C946.5,299.9 941.35,301.95 941.1,298.2 C940.9,295.35 945.2,295.05 947.2,296.1 C947.8,296.45 948.25,297.05 948.4,297.85" fill="#000000" id="K"/>
        <path d="M952.15,302.85 C952.05,304.05 953.05,304.3 954.05,303.95 L954.05,305.15 C952.4,305.65 950.55,305.4 950.55,303.2 L950.55,296.85 L949.45,296.85 L949.45,295.7 L950.65,295.7 L951.1,293.55 L952.15,293.55 L952.15,295.7 L953.9,295.7 L953.9,296.85 L952.15,296.85 L952.15,302.85" fill="#000000" id="v"/>
      </g>
      <path d="M161,90 L180.76,90" fill-opacity="0" stroke="#000000" stroke-width="2"/>
      <path d="M161,91 L159.96,91 L160,90 L159.96,89 L161,89 z M195.76,90 L181.5,94.64 L181.5,85.36 z" fill="#000000"/>
      <path d="M199,90 L180.5,96 L180.5,84 z M182.5,93.26 L192.53,90 L182.5,86.74 z" fill="#000000"/>
      <path d="M341,90 L380.76,90" fill-opacity="0" stroke="#000000" stroke-width="2"/>
      <path d="M341,91 L340,91 L340,89 L341,89 z M395.76,90 L381.5,94.64 L381.5,85.36 z" fill="#000000"/>
      <path d="M399,90 L380.5,96 L380.5,84 z M382.5,93.26 L392.53,90 L382.5,86.74 z" fill="#000000"/>
      <path d="M541,90 L582.23,90" fill-opacity="0" stroke="#000000" stroke-width="2"/>
      <path d="M541,91 L540,91 L540,89 L541,89 z M597.23,90 L582.96,94.64 L582.96,85.36 z" fill="#000000"/>
      <path d="M600.46,90 L581.96,96 L581.96,84 z M583.96,93.26 L594,90 L583.96,86.74 z M766.6,91 L743.54,91 L743.54,89 L766.59,89 z M800.76,91 L795.94,91 L795.94,89 L800.76,89 z M743.54,91 L740.84,91 L742,90 L740.83,89 L743.53,89 z M815.76,90 L801.5,94.64 L801.5,85.36 z" fill="#000000"/>
      <path d="M819,90 L800.5,96 L800.5,84 z M802.5,93.26 L812.53,90 L802.5,86.74 z" fill="#000000"/>
      <g id="r">
        <path d="M773.443,88.45 L773.443,93.6 L771.743,93.6 L771.743,88.45 L766.993,81.2 L768.843,81.2 L772.593,87.1 L776.343,81.2 L778.193,81.2" fill="#000000" id="W"/>
        <path d="M781.943,83.9 C785.093,83.9 786.243,86 786.143,89.2 L779.393,89.2 C779.393,91.2 780.093,92.55 782.043,92.6 C783.343,92.65 784.193,92 784.493,91.15 L785.893,91.55 C785.343,92.95 784.043,93.8 782.043,93.8 C779.143,93.8 777.643,91.95 777.693,88.8 C777.743,85.75 778.993,83.9 781.943,83.9 z M784.543,87.95 C784.843,84.95 780.743,84.1 779.693,86.55 C779.543,86.9 779.393,87.4 779.393,87.95 L784.543,87.95" fill="#000000" id="u"/>
        <path d="M793.693,86.45 C793.543,84.75 789.393,84.55 789.343,86.45 C790.093,89.1 795.093,87.05 795.293,90.95 C795.493,94.85 787.793,94.65 787.443,91.35 L788.843,91.1 C789.043,92.9 793.693,93.35 793.743,91.1 C793.243,88.3 788.093,90.35 787.843,86.6 C787.643,83.75 791.943,83.45 793.943,84.5 C794.543,84.85 794.993,85.45 795.143,86.25" fill="#000000" id="K"/>
      </g>
      <path d="M673,200.76 L671,200.76 L671,195.96 L673,195.96 z M673,174.36 L671,174.36 L671,151.32 L673,151.32 z M673,151.32 L671,151.32 L671,149.14 L672,150 L673,149.14 z M672,215.76 L667.36,201.5 L676.64,201.5 z" fill="#000000"/>
      <path d="M672,219 L666,200.5 L678,200.5 z M668.74,202.5 L672,212.53 L675.26,202.5 z" fill="#000000"/>
      <g id="s">
        <path d="M670.025,188.759 L663.425,178.209 L663.475,188.759 L662.025,188.759 L662.025,176.359 L663.975,176.359 L670.625,187.009 L670.525,176.359 L672.075,176.359 L672.075,188.759 L670.025,188.759" fill="#000000" id="X"/>
        <path d="M678.475,179.059 C681.575,179.009 682.725,180.909 682.725,184.009 C682.775,187.159 681.375,188.959 678.425,188.959 C675.475,188.959 674.275,187.009 674.225,184.009 C674.225,180.709 675.625,179.059 678.475,179.059 z M678.425,187.759 C680.625,187.809 681.075,186.209 681.075,184.009 C681.075,181.859 680.675,180.259 678.525,180.259 C676.375,180.259 675.875,181.859 675.875,184.009 C675.875,186.159 676.375,187.709 678.425,187.759" fill="#000000" id="y"/>
      </g>
      <path d="M890,151 L890,200.76" fill-opacity="0" stroke="#000000" stroke-width="2"/>
      <path d="M891,151 L889,151 L889,150 L891,150 z M890,215.76 L885.36,201.5 L894.64,201.5 z" fill="#000000"/>
      <path d="M890,219 L884,200.5 L896,200.5 z M886.74,202.5 L890,212.53 L893.26,202.5 z" fill="#000000"/>
      <path d="M743,280 L800.76,280" fill-opacity="0" stroke="#000000" stroke-width="2"/>
      <path d="M743,281 L742,281 L742,279 L743,279 z M815.76,280 L801.5,284.64 L801.5,275.36 z" fill="#000000"/>
      <path d="M819,280 L800.5,286 L800.5,274 z M802.5,283.26 L812.53,280 L802.5,276.74 z" fill="#000000"/>
    </g>
  </g>
</svg>
