<?xml version="1.0" encoding="utf-8"?>
<!-- Generator: Adobe Illustrator 25.0.0, SVG Export Plug-In . SVG Version: 6.00 Build 0)  -->
<svg version="1.1" id="Layer_1" xmlns="http://www.w3.org/2000/svg" xmlns:xlink="http://www.w3.org/1999/xlink" x="0px" y="0px"
	 viewBox="0 0 200 200" style="enable-background:new 0 0 200 200;" xml:space="preserve">
<g>
	<path d="M155.6,37.8c-8-5-18.2-7-30.2-7H30.8v136L0,136V0h94.6c15.6,0,26.6,2.6,35.6,11.6L156,37.4L155.6,37.8z M164,45.4l27,27
		c5.6,5.6,8.6,13.6,8.6,24v3.2c0,15-4.6,21.8-19.2,24.4v1.8l12.8,12.8c5.2,5.2,6.8,11.6,6.8,20v6.6c0,24-16,34.8-43.4,34.8H64
		l-30.8-30.8h92.6c27.4,0,43.4-10.8,43.4-34.8v-6.6c0-18.6-8.4-26.8-32.6-27.6v-3.8c24.2-0.8,32.2-9,32.2-27.6v-3.2
		c0-7.6-1.6-14.2-5.2-19.8L164,45.4z M77.2,59h30.4c11.6,0,15.2,3,15.2,12.6v1c0,9.6-3.6,12.6-15.2,12.6H77.2V59z M77.2,141v-27.6
		h30.4c11.6,0,15.2,3,15.2,12.6v2.4c0,9.6-3.6,12.6-15.2,12.6H77.2z"/>
</g>
<g>
	<path d="M132.7,1.6v-1.7h8.5v1.7H138v8.3h-2V1.6H132.7z M145.7-0.1l2.5,7.1l2.6-7.1h2.8v10h-1.8v-8l-2.8,8h-1.6l-2.8-8v8h-1.8v-10
		H145.7z"/>
</g>
</svg>
