<?xml version="1.0" encoding="utf-8"?>
<!-- Generator: Adobe Illustrator 26.0.3, SVG Export Plug-In . SVG Version: 6.00 Build 0)  -->
<svg version="1.1" xmlns="http://www.w3.org/2000/svg" xmlns:xlink="http://www.w3.org/1999/xlink" x="0px" y="0px"
	 viewBox="0 0 1015 100" style="enable-background:new 0 0 1015 100;" xml:space="preserve">
<g id="guides">
</g>
<g id="Layer_4">
	<g>
		<path d="M138.1,20.1c-11,0-16.7,6.1-16.7,17.4v26.7c0,10.6,4.4,15.7,14,15.7c8,0,11.3-3.4,11.6-11.6h0.9l1.6,10.7h5.3V46.9h-16.6
			v8.8h4.9v8.6c0,4.1-1.6,5.8-4.8,5.8c-3.2,0-4.8-1.7-4.8-5.8V35.6c0-4.1,1.6-5.8,4.5-5.8s4.5,1.7,4.5,5.8v6.2h12.1v-4.9
			C154.7,25.8,149.2,20.1,138.1,20.1z M101.7,79.1h12.2V20.9h-12.2V79.1z M44.4,49.5v-1c6.9-0.7,9.5-4,9.5-11.4v-0.8
			c0-10.8-4-15.3-14.8-15.3H20.2v58.1h19.2c10.9,0,14.8-4.5,14.8-15.3v-2.9C54.2,53.5,51.5,50.2,44.4,49.5z M32.4,30.8h4.4
			c3.7,0,5.1,1.4,5.1,6v1.5c0,4.8-1.6,6.2-5.6,6.2h-3.8V30.8z M42,63.1c0,4.7-1.4,6-5.1,6h-4.5V54.5h4.5c3.7,0,5.1,1.4,5.1,6V63.1z
			 M79.6,20.9H60.9v58.1h12.2V55.9h4.1c3.7,0,5.1,1.4,5.1,6v17.2h12.2V62.3c0-7.4-2.6-10.7-9.5-11.4v-1c6.9-0.7,9.5-4,9.5-11.4v-2.3
			C94.4,25.5,90.4,20.9,79.6,20.9z M82.2,39.8c0,4.8-1.6,6.2-5.6,6.2h-3.5V30.8h4.1c3.7,0,5.1,1.4,5.1,6V39.8z M183.4,44.9h-8.5v-24
			h-12.2v58.1h12.2V54.7h8.5v24.4h12.2V20.9h-12.2V44.9z M373.9,31V20.9h-27.6v58.1h27.6V69h-15.4V54.6h14.4v-9.8h-14.4V31H373.9z
			 M199.6,31h8.5v48.1h12.2V31h8.5V20.9h-29.3V31z M325.7,69h-1.1l-4.4-48.1h-12.6l6.8,58.1h20.2l6.6-58.1h-11.3L325.7,69z
			 M286.7,20.1c-11,0-16.9,6.1-16.9,17.4v25c0,11.3,5.8,17.4,16.9,17.4c11,0,16.9-6.1,16.9-17.4v-25
			C303.5,26.2,297.7,20.1,286.7,20.1z M291.3,64.4c0,4.1-1.7,5.8-4.7,5.8s-4.7-1.7-4.7-5.8V35.6c0-4.1,1.7-5.8,4.7-5.8
			s4.7,1.7,4.7,5.8V64.4z M248,20.1c-10.7,0-16.5,6.1-16.5,17.4v25c0,11.3,5.8,17.4,16.5,17.4c10.9,0,16.5-5.8,16.5-16.9V56h-12.1
			v8.4c0,4.1-1.6,5.8-4.3,5.8c-2.7,0-4.3-1.7-4.3-5.8V35.6c0-4.1,1.6-5.8,4.3-5.8c2.7,0,4.3,1.7,4.3,5.8v7.8h12.1v-6.5
			C264.5,25.8,258.9,20.1,248,20.1z"/>
		<path d="M425.3,26.3l-5.5,30.3h14.3l-5.5-30.3H425.3z M507.7,26.3h-8v47.4h8c6.7,0,9.5-4,9.5-12.4V38.7
			C517.2,30.3,514.4,26.3,507.7,26.3z M393,0v100h622.2V0H393z M438.2,79.1L435.1,62h-16.3l-3.1,17.1h-5.4L421,20.9h12l10.7,58.1
			H438.2z M480.6,64.2c0,9.9-4.5,15.5-14.1,15.5c-9.7,0-14.2-5.6-14.2-15.5V20.9h5.5v43c0,7.3,2.5,10.4,8.7,10.4
			c6.2,0,8.7-3.1,8.7-10.4v-43h5.3V64.2z M522.7,61.6c0,11.4-5.1,17.5-15,17.5h-13.5V20.9h13.5c9.9,0,15,6.1,15,17.5V61.6z
			 M542.1,79.1h-5.4V20.9h5.4V79.1z M580.4,26.3h-18.8v20.3h18.2V52h-18.2v21.7h18.8v5.4h-24.2V20.9h24.2V26.3z M622.4,79.1h-11.8
			l-11.3-52.8h-2.1v52.8h-5.3V20.9h11.8L615,73.7h2.1V20.9h5.3V79.1z M664.7,40.6h-5.5v-1.9c0-8.4-2.6-13-9.1-13
			c-6.5,0-9.1,4.6-9.1,13v22.6c0,8.4,2.6,13,9.1,13c6.5,0,9.1-4.6,9.1-13v-2.5h5.5v2.8c0,11.4-4.8,18.1-14.5,18.1
			s-14.5-6.7-14.5-18.1V38.4c0-11.4,4.8-18.1,14.5-18.1s14.5,6.7,14.5,18.1V40.6z M701,26.3h-18.8v20.3h18.2V52h-18.2v21.7H701v5.4
			h-24.2V20.9H701V26.3z M734.9,79.1h-5.4V20.9h5.4V79.1z M780,79.1h-11.8l-11.3-52.8h-2.1v52.8h-5.3V20.9h11.8l11.3,52.8h2.1V20.9
			h5.3V79.1z M823.3,65.7c0,2-0.4,3.8-1.1,5.6c-0.7,1.7-1.7,3.2-3.1,4.5c-2.8,2.6-6.6,4-11.2,4c-4.7,0-8.6-1.5-11.3-4.3
			c-1.3-1.4-2.4-3.1-3.1-5.1c-0.7-2-1-4.3-1-6.8v-4.8h5.5v4.8c0,3.6,0.8,6.4,2.4,8.2c1.6,1.8,4.2,2.8,7.5,2.8c3.2,0,5.8-0.9,7.5-2.5
			c1.6-1.5,2.4-3.6,2.4-6.2v-0.9c0-4.6-1.1-6.5-5.8-9.3l-10.8-6.5c-5.7-3.5-8.1-7.4-8.1-13.5v-1.1c0-4.3,1.3-7.8,3.8-10.2
			c1.3-1.2,2.8-2.2,4.7-2.8c1.8-0.6,3.9-1,6.3-1c9.3,0,14.7,5.9,14.7,16.3v4.3h-5.4v-4.3c0-3.7-0.7-6.4-2.2-8.2
			c-1.5-1.8-3.8-2.7-7.1-2.7c-6.3,0-9.3,2.8-9.3,8.7v0.3c0,4.7,1.2,6.6,5.8,9.4l10.8,6.4c5.7,3.4,8.1,7.3,8.1,13.4V65.7z
			 M840.5,79.1h-5.4V20.9h5.4V79.1z M881.7,40.6h-5.5v-1.9c0-8.4-2.5-13-9.1-13c-6.5,0-9.1,4.6-9.1,13v22.5c0,8.4,2.2,13,8.4,13
			c6.8,0,9.8-4.6,9.8-13v-6.3h-10.5v-5.3h16v29.4h-3.1l-0.4-9.8h-0.9c-1,6.3-4.4,10.4-11,10.4c-9.4,0-13.8-6.7-13.8-18.1V38.4
			c0-11.4,4.9-18.1,14.5-18.1c9.7,0,14.5,6.7,14.5,18.1V40.6z M923.6,79.1h-5.5V52h-17.7v27.1h-5.4V20.9h5.4v25.7h17.7V20.9h5.5
			V79.1z M959.1,26.3h-11.3v52.8h-5.5V26.3h-11.2v-5.4h27.9V26.3z M995.8,65.7c0,2-0.4,3.8-1.1,5.6c-0.7,1.7-1.7,3.2-3.1,4.5
			c-2.8,2.6-6.6,4-11.2,4c-4.7,0-8.6-1.5-11.3-4.3c-1.3-1.4-2.4-3.1-3.1-5.1c-0.7-2-1-4.3-1-6.8v-4.8h5.5v4.8c0,3.6,0.8,6.4,2.4,8.2
			c1.6,1.8,4.2,2.8,7.5,2.8c3.2,0,5.8-0.9,7.5-2.5c1.6-1.5,2.4-3.6,2.4-6.2v-0.9c0-4.6-1.1-6.5-5.8-9.3l-10.8-6.5
			c-5.7-3.5-8.1-7.4-8.1-13.5v-1.1c0-4.3,1.3-7.8,3.8-10.2c1.3-1.2,2.8-2.2,4.7-2.8c1.8-0.6,3.9-1,6.3-1c9.3,0,14.7,5.9,14.7,16.3
			v4.3h-5.4v-4.3c0-3.7-0.7-6.4-2.2-8.2c-1.5-1.8-3.8-2.7-7.1-2.7c-6.3,0-9.3,2.8-9.3,8.7v0.3c0,4.7,1.2,6.6,5.8,9.4l10.8,6.4
			c5.7,3.4,8.1,7.3,8.1,13.4V65.7z M1004.2,21.7h-1.5v3.8h-0.9v-3.8h-1.5v-0.8h3.8V21.7z M1009.8,25.4h-0.8v-3.6l-1.2,3.6h-0.7
			l-1.3-3.6v3.6h-0.8v-4.5h1.3l1.1,3.2l1.2-3.2h1.3V25.4z"/>
	</g>
</g>
</svg>
