<?xml version="1.0" encoding="utf-8"?>
<!-- Generator: Adobe Illustrator 26.0.3, SVG Export Plug-In . SVG Version: 6.00 Build 0)  -->
<svg version="1.1" xmlns="http://www.w3.org/2000/svg" xmlns:xlink="http://www.w3.org/1999/xlink" x="0px" y="0px"
	 viewBox="0 0 671.3 100" style="enable-background:new 0 0 671.3 100;" xml:space="preserve">
<style type="text/css">
	.st0{display:none;}
	.st1{display:inline;fill:#F20000;}
	.st2{display:inline;}
	.st3{fill:#F20000;}
</style>
<g id="guides">
	<g>
		<polygon points="463.5,24.9 457,57.3 472.9,57.3 466.4,24.9 		"/>
		<path d="M393,0v100h278.3V0H393z M441.4,40.6h-4.1v-4.4c0-7.8-3.1-12-10.3-12c-7.3,0-10.3,4.8-10.3,13.2v25.1
			c0,8.4,2.5,13.2,9.6,13.2c7.5,0,11.1-4.2,11.1-12V53.6h-12.6v-3.9h16.6v29.4h-2.3l-0.3-8.9h-1.2c-1.7,6.6-4.7,9.4-11.3,9.4
			c-9,0-13.7-6.4-13.7-17.1V37.4c0-10.7,5.2-17.1,14.4-17.1c9.2,0,14.4,5.8,14.4,15.9V40.6z M477.3,79.1l-3.6-17.9h-17.5l-3.6,17.9
			h-4l11.9-58.1h9.2l11.9,58.1H477.3z M513.8,79.1h-23.3V20.9h4.1v54.2h19.2V79.1z M545.2,79.1H522V20.9h4.1v54.2h19.2V79.1z
			 M577.4,24.9h-19.8v22.5h19.3v3.9h-19.3v23.9h19.8v3.9h-23.9V20.9h23.9V24.9z M616.7,39c0,7.5-4.4,10.9-11.3,11.3v0.9
			c6.9,0.4,11.3,3.9,11.3,11.3v16.6h-4.1V62.4c0-6.9-2.9-9.7-10.4-9.7h-9.5v26.4h-4.1V20.9h13.5c10,0,14.5,4.6,14.5,13.6V39z
			 M639.2,61v18h-4.1V61l-13.4-40.1h4.1L637,54.8h0.5l11.1-33.9h3.9L639.2,61z M659,21.8h-1.7V26h-1v-4.2h-1.7v-0.8h4.3V21.8z
			 M665.4,26h-0.9v-4.1L663,26h-0.8l-1.4-4.1V26h-0.9v-5.1h1.4l1.3,3.6l1.3-3.6h1.4V26z"/>
		<path d="M602.2,24.9h-9.5v23.9h9.5c7.5,0,10.4-2.8,10.4-9.7v-4.5C612.6,27.7,609.7,24.9,602.2,24.9z"/>
	</g>
</g>
<g id="Layer_1">
</g>
<g id="Layer_4">
	<path d="M138.1,20.1c-11,0-16.7,6.1-16.7,17.4v26.7c0,10.6,4.4,15.7,14,15.7c8,0,11.3-3.4,11.6-11.6h0.9l1.6,10.7h5.3V46.9h-16.6
		v8.8h4.9v8.6c0,4.1-1.6,5.8-4.8,5.8c-3.2,0-4.8-1.7-4.8-5.8V35.6c0-4.1,1.6-5.8,4.5-5.8s4.5,1.7,4.5,5.8v6.2h12.1v-4.9
		C154.7,25.8,149.2,20.1,138.1,20.1z M101.7,79.1h12.2V20.9h-12.2V79.1z M44.4,49.5v-1c6.9-0.7,9.5-4,9.5-11.4v-0.8
		c0-10.8-4-15.3-14.8-15.3H20.2v58.1h19.2c10.9,0,14.8-4.5,14.8-15.3v-2.9C54.2,53.5,51.5,50.2,44.4,49.5z M32.4,30.8h4.4
		c3.7,0,5.1,1.4,5.1,6v1.5c0,4.8-1.6,6.2-5.6,6.2h-3.8V30.8z M42,63.1c0,4.7-1.4,6-5.1,6h-4.5V54.5h4.5c3.7,0,5.1,1.4,5.1,6V63.1z
		 M79.6,20.9H60.9v58.1h12.2V55.9h4.1c3.7,0,5.1,1.4,5.1,6v17.2h12.2V62.3c0-7.4-2.6-10.7-9.5-11.4v-1c6.9-0.7,9.5-4,9.5-11.4v-2.3
		C94.4,25.5,90.4,20.9,79.6,20.9z M82.2,39.8c0,4.8-1.6,6.2-5.6,6.2h-3.5V30.8h4.1c3.7,0,5.1,1.4,5.1,6V39.8z M183.4,44.9h-8.5v-24
		h-12.2v58.1h12.2V54.7h8.5v24.4h12.2V20.9h-12.2V44.9z M373.9,31V20.9h-27.6v58.1h27.6V69h-15.4V54.6h14.4v-9.8h-14.4V31H373.9z
		 M199.6,31h8.5v48.1h12.2V31h8.5V20.9h-29.3V31z M325.7,69h-1.1l-4.4-48.1h-12.6l6.8,58.1h20.2l6.6-58.1h-11.3L325.7,69z
		 M286.7,20.1c-11,0-16.9,6.1-16.9,17.4v25c0,11.3,5.8,17.4,16.9,17.4c11,0,16.9-6.1,16.9-17.4v-25
		C303.5,26.2,297.7,20.1,286.7,20.1z M291.3,64.4c0,4.1-1.7,5.8-4.7,5.8s-4.7-1.7-4.7-5.8V35.6c0-4.1,1.7-5.8,4.7-5.8
		s4.7,1.7,4.7,5.8V64.4z M248,20.1c-10.7,0-16.5,6.1-16.5,17.4v25c0,11.3,5.8,17.4,16.5,17.4c10.9,0,16.5-5.8,16.5-16.9V56h-12.1
		v8.4c0,4.1-1.6,5.8-4.3,5.8c-2.7,0-4.3-1.7-4.3-5.8V35.6c0-4.1,1.6-5.8,4.3-5.8c2.7,0,4.3,1.7,4.3,5.8v7.8h12.1v-6.5
		C264.5,25.8,258.9,20.1,248,20.1z"/>
</g>
<g id="spacing" class="st0">
	
		<text transform="matrix(1 0 0 1 409.6153 277.0703)" style="display:inline;fill:#FF0000; font-family:'Zuume-Light'; font-size:100px; letter-spacing:2;">Audience Insights</text>
	<rect x="995" y="218.3" class="st1" width="5.3" height="19.8"/>
	
		<text transform="matrix(1 0 0 1 407.6153 -60.9297)" style="display:inline;fill:#FF0000; font-family:'Zuume-Light'; font-size:100px; letter-spacing:2;">interactivity</text>
	
		<text transform="matrix(1 0 0 1 407.8943 -365.7656)" style="display:inline;fill:#FF0000; font-family:'Zuume-Light'; font-size:100px; letter-spacing:2;">marketing studio</text>
	<g class="st2">
		
			<text transform="matrix(1 0 0 1 408.9604 -774.9302)" style="fill:#FF0000; font-family:'Zuume-Light'; font-size:100px; letter-spacing:2;">CORPTV</text>
	</g>
	
		<text transform="matrix(1 0 0 1 793.567 -2366.7009)" style="display:inline;fill:#FF0000; font-family:'Zuume-Light'; font-size:100px;">VIDEO CLOUD</text>
	<g class="st2">
		<rect x="454.5" y="-672.5" class="st3" width="5.3" height="17.6"/>
		<rect x="459.9" y="-672.5" class="st3" width="5.3" height="17.6"/>
	</g>
	<g class="st2">
		<rect x="497.5" y="-672.5" class="st3" width="5.3" height="17.6"/>
		<rect x="502.8" y="-672.5" class="st3" width="5.3" height="17.6"/>
	</g>
	<g class="st2">
		<rect x="537.2" y="-672.5" class="st3" width="5.3" height="17.6"/>
		<rect x="542.6" y="-672.5" class="st3" width="5.3" height="17.6"/>
	</g>
	<rect x="613.4" y="-713.1" class="st1" width="5.3" height="17.6"/>
	<rect x="673.5" y="-713.1" class="st1" width="5.3" height="17.6"/>
	<g class="st2">
		<rect x="578.1" y="-672.5" class="st3" width="5.3" height="17.6"/>
		<rect x="583.5" y="-672.5" class="st3" width="5.3" height="17.6"/>
	</g>
	<rect x="646.6" y="-713.1" class="st1" width="5.3" height="17.6"/>
	<rect x="652" y="-713.1" class="st1" width="5.3" height="17.6"/>
	<rect x="652" y="-713.1" class="st1" width="5.3" height="17.6"/>
	<g class="st2">
		<rect x="662.9" y="-713.1" class="st3" width="5.3" height="17.6"/>
		<rect x="668.2" y="-713.1" class="st3" width="5.3" height="17.6"/>
	</g>
	<g class="st2">
		<rect x="709.4" y="-713.1" class="st3" width="5.3" height="17.6"/>
		<rect x="714.7" y="-713.1" class="st3" width="5.3" height="17.6"/>
	</g>
	<g class="st2">
		<rect x="866.9" y="-713.1" class="st3" width="5.3" height="17.6"/>
		<rect x="872.3" y="-713.1" class="st3" width="5.3" height="17.6"/>
	</g>
	<g class="st2">
		<rect x="906.1" y="-713.1" class="st3" width="5.3" height="17.6"/>
		<rect x="911.5" y="-713.1" class="st3" width="5.3" height="17.6"/>
	</g>
	<g class="st2">
		<rect x="922.3" y="-713.1" class="st3" width="5.3" height="17.6"/>
		<rect x="927.6" y="-713.1" class="st3" width="5.3" height="17.6"/>
	</g>
	<rect x="800.1" y="-713.1" class="st1" width="5.3" height="19.8"/>
	<rect x="833.3" y="-713.1" class="st1" width="5.3" height="19.8"/>
	<rect x="962.4" y="-713.1" class="st1" width="5.3" height="19.8"/>
	<rect x="977.2" y="-713.1" class="st1" width="5.3" height="19.8"/>
	<rect x="994.5" y="-119.1" class="st1" width="5.3" height="19.8"/>
	
		<text transform="matrix(1 0 0 1 407.8943 -534.8666)" style="display:inline;fill:#FF0000; font-family:'Zuume-Light'; font-size:100px; letter-spacing:2;">marketing studio</text>
	<rect x="994.5" y="-593.1" class="st1" width="5.3" height="19.8"/>
	<g class="st2">
		<rect x="749.1" y="-711.1" class="st3" width="5.3" height="17.6"/>
		<rect x="754.5" y="-711.1" class="st3" width="5.3" height="17.6"/>
		<rect x="759.9" y="-711.1" class="st3" width="5.3" height="17.6"/>
		<rect x="765.2" y="-711.1" class="st3" width="5.3" height="17.6"/>
	</g>
	<rect x="778.2" y="-2311.8" class="st2" width="21" height="21"/>
	<rect x="862.7" y="-2291.5" class="st1" width="10.7" height="17.6"/>
	<rect x="888" y="-2293.6" class="st1" width="5.3" height="17.6"/>
	<rect x="922.6" y="-2296.1" class="st1" width="10.7" height="17.6"/>
	<rect x="933.3" y="-2296.1" class="st1" width="10.7" height="17.6"/>
	<rect x="443.1" y="-919.1" class="st1" width="5.3" height="17.6"/>
	<rect x="448.4" y="-919.1" class="st1" width="5.3" height="17.6"/>
	<rect x="483.8" y="-919.1" class="st1" width="5.3" height="17.6"/>
	<rect x="489.1" y="-919.1" class="st1" width="5.3" height="17.6"/>
	<rect x="523.4" y="-919.1" class="st1" width="5.3" height="17.6"/>
	<rect x="528.7" y="-919.1" class="st1" width="5.3" height="17.6"/>
	<rect x="561.4" y="-953" class="st1" width="5.3" height="17.6"/>
	<rect x="594.7" y="-953" class="st1" width="5.3" height="17.6"/>
	<rect x="632.1" y="-953" class="st1" width="5.3" height="17.6"/>
	<rect x="646.9" y="-953" class="st1" width="5.3" height="17.6"/>
	<rect x="636.6" y="-833.1" class="st1" width="5.3" height="17.6"/>
	<rect x="651.4" y="-833.1" class="st1" width="5.3" height="17.6"/>
	<rect x="1009.9" y="219.3" class="st1" width="5.3" height="19.8"/>
</g>
</svg>
