<?xml version="1.0" encoding="utf-8"?>
<!-- Generator: Adobe Illustrator 25.4.1, SVG Export Plug-In . SVG Version: 6.00 Build 0)  -->
<svg version="1.1" xmlns="http://www.w3.org/2000/svg" xmlns:xlink="http://www.w3.org/1999/xlink" x="0px" y="0px"
	 viewBox="0 0 657 100" style="enable-background:new 0 0 657 100;" xml:space="preserve">
<g id="guides">
</g>
<g id="Layer_1">
	<path d="M138.1,20.1c-11,0-16.7,6.1-16.7,17.4v26.7c0,10.6,4.4,15.7,14,15.7c8,0,11.3-3.4,11.6-11.6h0.9l1.6,10.7h5.3V46.9h-16.6
		v8.8h4.9v8.6c0,4.1-1.6,5.8-4.8,5.8c-3.2,0-4.8-1.7-4.8-5.8V35.6c0-4.1,1.6-5.8,4.5-5.8s4.5,1.7,4.5,5.8v6.2h12.1v-4.9
		C154.8,25.8,149.3,20.1,138.1,20.1z M101.7,79.1h12.2V20.9h-12.2V79.1z M44.5,49.5v-1c6.9-0.7,9.5-4,9.5-11.4v-0.8
		c0-10.8-4-15.3-14.8-15.3H20.2v58.1h19.2c10.9,0,14.8-4.5,14.8-15.3v-2.9C54.2,53.5,51.6,50.2,44.5,49.5z M32.4,30.8h4.4
		c3.7,0,5.1,1.4,5.1,6v1.5c0,4.8-1.6,6.2-5.6,6.2h-3.8V30.8z M42,63.1c0,4.7-1.4,6-5.1,6h-4.5V54.5H37c3.7,0,5.1,1.4,5.1,6V63.1z
		 M79.6,20.9H60.9v58.1h12.2V55.9h4.1c3.7,0,5.1,1.4,5.1,6v17.2h12.2V62.3c0-7.4-2.6-10.7-9.5-11.4v-1c6.9-0.7,9.5-4,9.5-11.4v-2.3
		C94.5,25.5,90.5,20.9,79.6,20.9z M82.3,39.8c0,4.8-1.6,6.2-5.6,6.2h-3.5V30.8h4.1c3.7,0,5.1,1.4,5.1,6V39.8z M183.4,44.9h-8.5v-24
		h-12.2v58.1h12.2V54.7h8.5v24.4h12.2V20.9h-12.2V44.9z M373.9,31V20.9h-27.6v58.1h27.6V69h-15.4V54.6h14.4v-9.8h-14.4V31H373.9z
		 M199.7,31h8.5v48.1h12.2V31h8.5V20.9h-29.3V31z M325.7,69h-1.1l-4.4-48.1h-12.6l6.8,58.1h20.2l6.6-58.1h-11.3L325.7,69z
		 M286.7,20.1c-11,0-16.9,6.1-16.9,17.4v25c0,11.3,5.8,17.4,16.9,17.4c11,0,16.9-6.1,16.9-17.4v-25
		C303.6,26.2,297.8,20.1,286.7,20.1z M291.4,64.4c0,4.1-1.7,5.8-4.7,5.8s-4.7-1.7-4.7-5.8V35.6c0-4.1,1.7-5.8,4.7-5.8
		s4.7,1.7,4.7,5.8V64.4z M248.1,20.1c-10.7,0-16.5,6.1-16.5,17.4v25c0,11.3,5.8,17.4,16.5,17.4c10.9,0,16.5-5.8,16.5-16.9V56h-12.1
		v8.4c0,4.1-1.6,5.8-4.3,5.8c-2.7,0-4.3-1.7-4.3-5.8V35.6c0-4.1,1.6-5.8,4.3-5.8c2.7,0,4.3,1.7,4.3,5.8v7.8h12.1v-6.5
		C264.5,25.8,258.9,20.1,248.1,20.1z"/>
	<path d="M469.5,25.7c-6.7,0-9.5,4.6-9.5,13v22.6c0,8.4,2.8,13,9.5,13s9.5-4.6,9.5-13V38.7C479.1,30.3,476.2,25.7,469.5,25.7z
		 M551.1,26.3h-7.4v25.2h7.4c6.9,0,9.2-2.2,9.2-8.3v-8.5C560.3,28.5,558,26.3,551.1,26.3z M512.5,26.3h-8.8v20.1h8.8
		c6.9,0,9.2-2.2,9.2-8.3v-3.4C521.7,28.5,519.4,26.3,512.5,26.3z M393,0v100h263.6V0H393z M443.1,40.6h-5.5v-1.9
		c0-8.4-2.6-13-9.1-13c-6.5,0-9.1,4.6-9.1,13v22.6c0,8.4,2.6,13,9.1,13c6.5,0,9.1-4.6,9.1-13v-2.5h5.5v2.8
		c0,11.4-4.8,18.1-14.5,18.1S414,73,414,61.6V38.4c0-11.4,4.8-18.1,14.5-18.1s14.5,6.7,14.5,18.1V40.6z M484.5,61.6
		c0,11.4-5.1,18.1-15,18.1s-15-6.7-15-18.1V38.4c0-11.4,5.1-18.1,15-18.1s15,6.7,15,18.1V61.6z M527.1,37.7c0,7.5-2.9,10.4-9.8,10.8
		v0.9c6.9,0.4,9.8,3.3,9.8,10.8v18.8h-5.5l0.1-19.1c0-6.1-2.3-8.3-9.2-8.3h-8.8v27.4h-5.5V20.9h14.3c10.2,0,14.7,4.3,14.7,13.5V37.7
		z M565.6,45.6c-0.7,7.6-5.3,11.2-14.5,11.2h-7.4v22.3h-5.5V20.9h12.8c9.3,0,13.8,3.6,14.5,11.2V45.6z M599.8,26.3h-11.3v52.8H583
		V26.3h-11.2v-5.4h27.9V26.3z M626,79.1h-11.3l-10.3-58.1h5.5l9.2,52.8h2.6l9.2-52.8h5.4L626,79.1z M645.6,21.7h-1.5v3.8h-0.9v-3.8
		h-1.5v-0.8h3.8V21.7z M651.2,25.4h-0.8v-3.6l-1.2,3.6h-0.7l-1.3-3.6v3.6h-0.8v-4.5h1.3l1.1,3.2l1.2-3.2h1.3V25.4z"/>
</g>
</svg>
