<?xml version="1.0" encoding="utf-8"?>
<!-- Generator: Adobe Illustrator 25.0.0, SVG Export Plug-In . SVG Version: 6.00 Build 0)  -->
<svg version="1.1" id="Layer_1" xmlns="http://www.w3.org/2000/svg" xmlns:xlink="http://www.w3.org/1999/xlink" x="0px" y="0px"
	 viewBox="0 0 195.9 98.7" style="enable-background:new 0 0 195.9 98.7;" xml:space="preserve">
<style type="text/css">
	.st0{fill:#FFFFFF;}
</style>
<g>
	<g>
		<path class="st0" d="M13.4,16.3v-0.6c3.8-0.4,5.2-2.2,5.2-6.3V9c0-6-2.2-8.5-8.2-8.5H0v32.2h10.6c6,0,8.2-2.5,8.2-8.5v-1.6
			C18.8,18.5,17.4,16.7,13.4,16.3z M6.8,6h2.4c2,0,2.8,0.8,2.8,3.3v0.8c0,2.7-0.9,3.5-3.1,3.5H6.8V6z M12.1,23.9
			c0,2.6-0.8,3.3-2.8,3.3H6.8v-8.1h2.5c2,0,2.8,0.8,2.8,3.4V23.9z"/>
		<polygon class="st0" points="171.6,0.5 177.8,0.5 174.2,32.7 163,32.7 159.2,0.5 166.2,0.5 168.6,27.1 169.2,27.1 		"/>
		<polygon class="st0" points="180.6,0.5 195.9,0.5 195.9,6.1 187.4,6.1 187.4,13.7 195.4,13.7 195.4,19.1 187.4,19.1 187.4,27.1 
			195.9,27.1 195.9,32.7 180.6,32.7 		"/>
		<path class="st0" d="M135.3,9.3v3.6h-6.7V8.6c0-2.3-0.9-3.2-2.4-3.2c-1.5,0-2.4,1-2.4,3.2v15.9c0,2.3,0.9,3.2,2.4,3.2
			c1.5,0,2.4-1,2.4-3.2v-4.6h6.7v3.9c0,6.2-3.1,9.3-9.1,9.3c-5.9,0-9.1-3.4-9.1-9.7V9.7c0-6.3,3.2-9.7,9.1-9.7
			C132.2,0,135.3,3.2,135.3,9.3z"/>
		<polygon class="st0" points="99.4,0.5 115.7,0.5 115.7,6.1 110.9,6.1 110.9,32.7 104.2,32.7 104.2,6.1 99.4,6.1 		"/>
		<path class="st0" d="M74.6,9.3V12h-6.7V8.6c0-2.3-0.9-3.2-2.5-3.2c-1.6,0-2.5,1-2.5,3.2v15.9c0,2.3,0.9,3.2,2.6,3.2
			c1.8,0,2.6-1,2.6-3.2v-4.8h-2.7v-4.9h9.2v17.8h-3l-0.9-5.9h-0.5c-0.2,4.5-2,6.4-6.4,6.4c-5.3,0-7.7-2.8-7.7-8.7V9.7
			c0-6.3,3.1-9.7,9.2-9.7C71.5,0,74.6,3.2,74.6,9.3z"/>
		<path class="st0" d="M41.1,10.2V9c0-6-2.2-8.5-8.2-8.5H22.5v32.2h6.8V19.8h2.3c2,0,2.8,0.8,2.8,3.3v9.5h6.8v-9.3
			c0-4.1-1.4-5.9-5.2-6.3v-0.6C39.7,16.1,41.1,14.3,41.1,10.2z M34.4,10.9c0,2.6-0.9,3.4-3.1,3.4h-1.9V6h2.3c2,0,2.8,0.8,2.8,3.3
			V10.9z"/>
		<rect x="45.1" y="0.5" class="st0" width="6.8" height="32.2"/>
		<path class="st0" d="M147.6,0c-6.1,0-9.3,3.4-9.3,9.7v13.8c0,6.3,3.2,9.7,9.3,9.7s9.3-3.4,9.3-9.7V9.7C157,3.4,153.8,0,147.6,0z
			 M150.2,24.5c0,2.3-0.9,3.2-2.6,3.2c-1.6,0-2.6-1-2.6-3.2V8.6c0-2.3,0.9-3.2,2.6-3.2c1.7,0,2.6,1,2.6,3.2V24.5z"/>
		<polygon class="st0" points="90.4,0.5 97.2,0.5 97.2,32.7 90.4,32.7 90.4,19.2 85.7,19.2 85.7,32.7 78.9,32.7 78.9,0.5 85.7,0.5 
			85.7,13.8 90.4,13.8 		"/>
	</g>
</g>
<polygon class="st0" points="52.5,57.1 48.9,75.1 57.7,75.1 54.1,57.1 "/>
<path class="st0" d="M112,57.1h-5.4v13.2h5.4c4.2,0,5.8-1.5,5.8-5.4v-2.5C117.8,58.7,116.2,57.1,112,57.1z"/>
<path class="st0" d="M18.8,57.1H14v15.1h4.8c4.2,0,5.8-1.5,5.8-5.3v-4.4C24.6,58.6,23,57.1,18.8,57.1z"/>
<path class="st0" d="M0,43.3v55.4h134.4V43.3H0z M26.7,68.8c-0.6,3.7-3.1,5.6-7.9,5.6H14v12.7h-2.3V54.9h7.1c4.8,0,7.2,1.9,7.9,5.6
	V68.8z M42.3,87.1H30.2V54.9h2.3v30h10.3L42.3,87.1z M60.2,87.1l-2-9.9h-9.7l-2,9.9h-2.2l6.6-32.2h5.1l6.6,32.2H60.2z M72.9,77.2v10
	h-2.3v-10l-7.4-22.2h2.3l6.2,18.7H72l6.2-18.7h2.2L72.9,77.2z M98.1,57.1h-11v12.4h10.7v2.2H87.1V85h11v2.2H84.8V54.9h13.2V57.1z
	 M120,64.9c0,4.2-2.5,6.1-6.3,6.3v0.5c3.8,0.2,6.3,2.1,6.3,6.3v9.1h-2.3v-9.2c0-3.8-1.6-5.4-5.8-5.4h-5.4v14.6h-2.3V54.9h7.7
	c5.5,0,8,2.6,8,7.5V64.9z M125.7,55.4h-0.9v2.3h-0.6v-2.3h-0.9v-0.5h2.4V55.4z M129.3,57.8h-0.5v-2.3l-0.8,2.3h-0.5l-0.8-2.3v2.3
	h-0.5v-2.8h0.8l0.7,2l0.7-2h0.8V57.8z"/>
</svg>
