<?xml version="1.0" encoding="utf-8"?>
<!-- Generator: Adobe Illustrator 25.0.0, SVG Export Plug-In . SVG Version: 6.00 Build 0)  -->
<svg version="1.1" id="Layer_1" xmlns="http://www.w3.org/2000/svg" xmlns:xlink="http://www.w3.org/1999/xlink" x="0px" y="0px"
	 viewBox="0 0 222.1 98.7" style="enable-background:new 0 0 222.1 98.7;" xml:space="preserve">
<g>
	<g>
		<path d="M13.4,16.3v-0.6c3.8-0.4,5.2-2.2,5.2-6.3V9c0-6-2.2-8.5-8.2-8.5H0v32.2h10.6c6,0,8.2-2.5,8.2-8.5v-1.6
			C18.8,18.5,17.4,16.7,13.4,16.3z M6.8,6h2.4c2,0,2.8,0.8,2.8,3.3v0.8c0,2.7-0.9,3.5-3.1,3.5H6.8V6z M12.1,23.9
			c0,2.6-0.8,3.3-2.8,3.3H6.8v-8.1h2.5c2,0,2.8,0.8,2.8,3.4V23.9z"/>
		<polygon points="171.6,0.5 177.8,0.5 174.2,32.7 163,32.7 159.2,0.5 166.2,0.5 168.6,27.1 169.2,27.1 		"/>
		<polygon points="180.6,0.5 195.9,0.5 195.9,6.1 187.4,6.1 187.4,13.7 195.4,13.7 195.4,19.1 187.4,19.1 187.4,27.1 195.9,27.1 
			195.9,32.7 180.6,32.7 		"/>
		<path d="M135.3,9.3v3.6h-6.7V8.6c0-2.3-0.9-3.2-2.4-3.2c-1.5,0-2.4,1-2.4,3.2v15.9c0,2.3,0.9,3.2,2.4,3.2c1.5,0,2.4-1,2.4-3.2
			v-4.6h6.7v3.9c0,6.2-3.1,9.3-9.1,9.3c-5.9,0-9.1-3.4-9.1-9.7V9.7c0-6.3,3.2-9.7,9.1-9.7C132.2,0,135.3,3.2,135.3,9.3z"/>
		<polygon points="99.4,0.5 115.7,0.5 115.7,6.1 110.9,6.1 110.9,32.7 104.2,32.7 104.2,6.1 99.4,6.1 		"/>
		<path d="M74.6,9.3V12h-6.7V8.6c0-2.3-0.9-3.2-2.5-3.2c-1.6,0-2.5,1-2.5,3.2v15.9c0,2.3,0.9,3.2,2.6,3.2c1.8,0,2.6-1,2.6-3.2v-4.8
			h-2.7v-4.9h9.2v17.8h-3l-0.9-5.9h-0.5c-0.2,4.5-2,6.4-6.4,6.4c-5.3,0-7.7-2.8-7.7-8.7V9.7c0-6.3,3.1-9.7,9.2-9.7
			C71.5,0,74.6,3.2,74.6,9.3z"/>
		<path d="M41.1,10.2V9c0-6-2.2-8.5-8.2-8.5H22.5v32.2h6.8V19.8h2.3c2,0,2.8,0.8,2.8,3.3v9.5h6.8v-9.3c0-4.1-1.4-5.9-5.2-6.3v-0.6
			C39.7,16.1,41.1,14.3,41.1,10.2z M34.4,10.9c0,2.6-0.9,3.4-3.1,3.4h-1.9V6h2.3c2,0,2.8,0.8,2.8,3.3V10.9z"/>
		<rect x="45.1" y="0.5" width="6.8" height="32.2"/>
		<path d="M147.6,0c-6.1,0-9.3,3.4-9.3,9.7v13.8c0,6.3,3.2,9.7,9.3,9.7s9.3-3.4,9.3-9.7V9.7C157,3.4,153.8,0,147.6,0z M150.2,24.5
			c0,2.3-0.9,3.2-2.6,3.2c-1.6,0-2.6-1-2.6-3.2V8.6c0-2.3,0.9-3.2,2.6-3.2c1.7,0,2.6,1,2.6,3.2V24.5z"/>
		<polygon points="90.4,0.5 97.2,0.5 97.2,32.7 90.4,32.7 90.4,19.2 85.7,19.2 85.7,32.7 78.9,32.7 78.9,0.5 85.7,0.5 85.7,13.8 
			90.4,13.8 		"/>
	</g>
</g>
<path d="M0,43.3v55.4h222.1V43.3H0z M20.7,87.1h-4.7L9.7,54.9h2.3l6,30H19l6-30h2.2L20.7,87.1z M34.4,87.1h-2.3V54.9h2.3V87.1z
	 M57,78c0,6.3-2.7,9.1-8.2,9.1h-7.3V54.9h7.3c5.5,0,8.2,2.9,8.2,9.1V78z M76.4,57.1h-11v12.4h10.7v2.2H65.5V85h11v2.2H63.2V54.9
	h13.2V57.1z M97.6,78c0,5.9-3.1,9.5-8.2,9.5c-5.2,0-8.2-3.6-8.2-9.5V64.1c0-5.9,3.1-9.5,8.2-9.5c5.2,0,8.2,3.6,8.2,9.5V78z
	 M126.4,65.9h-2.3v-2.4c0-4.3-1.7-6.7-5.7-6.7s-5.7,2.7-5.7,7.3V78c0,4.6,1.7,7.3,5.7,7.3s5.7-2.4,5.7-6.7v-2.7h2.3v2.7
	c0,5.6-2.8,8.8-8,8.8s-8-3.5-8-9.5V64.1c0-5.9,2.8-9.5,8-9.5s8,3.2,8,8.8V65.9z M145.3,87.1h-12.9V54.9h2.3v30h10.6V87.1z M164.5,78
	c0,5.9-3.1,9.5-8.2,9.5s-8.2-3.6-8.2-9.5V64.1c0-5.9,3.1-9.5,8.2-9.5s8.2,3.6,8.2,9.5V78z M185.8,79.1c0,5.3-2.7,8.4-7.7,8.4
	c-5.1,0-7.8-3.1-7.8-8.4V54.9h2.3v24.1c0,4.1,1.6,6.3,5.5,6.3c3.9,0,5.5-2.2,5.5-6.3V54.9h2.2V79.1z M208,78c0,6.3-2.7,9.1-8.2,9.1
	h-7.3V54.9h7.3c5.5,0,8.2,2.9,8.2,9.1V78z M213.5,55.4h-0.9v2.3H212v-2.3h-0.9v-0.5h2.4V55.4z M217,57.8h-0.5v-2.3l-0.8,2.3h-0.5
	l-0.8-2.3v2.3H214v-2.8h0.8l0.7,2l0.7-2h0.8V57.8z"/>
<path d="M156.3,56.8c-4.1,0-6,2.7-6,7.3V78c0,4.6,1.9,7.3,6,7.3s6-2.7,6-7.3V64.1C162.3,59.4,160.4,56.8,156.3,56.8z"/>
<path d="M199.7,57.1h-5V85h5c4.3,0,6-1.9,6-7V64.1C205.7,59,204.1,57.1,199.7,57.1z"/>
<path d="M48.8,57.1h-5V85h5c4.3,0,6-1.9,6-7V64.1C54.7,59,53.1,57.1,48.8,57.1z"/>
<path d="M89.4,56.8c-4.1,0-6,2.7-6,7.3V78c0,4.6,1.9,7.3,6,7.3c4.1,0,6-2.7,6-7.3V64.1C95.4,59.4,93.5,56.8,89.4,56.8z"/>
</svg>
