<?xml version="1.0" encoding="utf-8"?>
<!-- Generator: Adobe Illustrator 25.0.0, SVG Export Plug-In . SVG Version: 6.00 Build 0)  -->
<svg version="1.1" id="Layer_1" xmlns="http://www.w3.org/2000/svg" xmlns:xlink="http://www.w3.org/1999/xlink" x="0px" y="0px"
	 viewBox="0 0 351.2 55.4" style="enable-background:new 0 0 351.2 55.4;" xml:space="preserve">
<g>
	<polygon points="99.4,17.2 104.2,17.2 104.2,43.8 110.9,43.8 110.9,17.2 115.7,17.2 115.7,11.6 99.4,11.6 	"/>
	<path d="M126.2,11.1c-5.9,0-9.1,3.4-9.1,9.7v13.8c0,6.3,3.2,9.7,9.1,9.7c6,0,9.1-3.2,9.1-9.3V31h-6.7v4.6c0,2.3-0.9,3.2-2.4,3.2
		c-1.5,0-2.4-1-2.4-3.2V19.7c0-2.3,0.9-3.2,2.4-3.2c1.5,0,2.4,1,2.4,3.2v4.3h6.7v-3.6C135.3,14.3,132.2,11.1,126.2,11.1z"/>
	<polygon points="90.4,24.9 85.7,24.9 85.7,11.6 78.9,11.6 78.9,43.8 85.7,43.8 85.7,30.3 90.4,30.3 90.4,43.8 97.2,43.8 97.2,11.6 
		90.4,11.6 	"/>
	<rect x="45.2" y="11.6" width="6.8" height="32.2"/>
	<path d="M13.4,27.4v-0.6c3.8-0.4,5.2-2.2,5.2-6.3v-0.5c0-6-2.2-8.5-8.2-8.5H0v32.2h10.6c6,0,8.2-2.5,8.2-8.5v-1.6
		C18.8,29.6,17.4,27.8,13.4,27.4z M6.8,17.1h2.4c2,0,2.8,0.8,2.8,3.3v0.8c0,2.6-0.9,3.4-3.1,3.4H6.8V17.1z M12.1,35
		c0,2.6-0.8,3.3-2.8,3.3H6.8v-8.1h2.5c2,0,2.8,0.8,2.8,3.3V35z"/>
	<path d="M65.3,11.1c-6.1,0-9.2,3.4-9.2,9.7v14.8c0,5.9,2.4,8.7,7.7,8.7c4.4,0,6.2-1.9,6.4-6.4h0.5l0.9,5.9h3V26h-9.2v4.9h2.7v4.8
		c0,2.3-0.9,3.2-2.6,3.2c-1.8,0-2.6-1-2.6-3.2V19.7c0-2.3,0.9-3.2,2.5-3.2c1.6,0,2.5,1,2.5,3.2v3.4h6.7v-2.7
		C74.6,14.3,71.5,11.1,65.3,11.1z"/>
	<path d="M32.9,11.6H22.5v32.2h6.8V31h2.3c2,0,2.8,0.8,2.8,3.3v9.5h6.8v-9.3c0-4.1-1.4-5.9-5.2-6.3v-0.6c3.8-0.4,5.2-2.2,5.2-6.3
		v-1.3C41.1,14.1,38.9,11.6,32.9,11.6z M34.4,22c0,2.6-0.9,3.4-3.1,3.4h-1.9v-8.4h2.3c2,0,2.8,0.8,2.8,3.3V22z"/>
	<path d="M147.6,11.1c-6.1,0-9.3,3.4-9.3,9.7v13.8c0,6.3,3.2,9.7,9.3,9.7c6.1,0,9.3-3.4,9.3-9.7V20.8
		C157,14.5,153.8,11.1,147.6,11.1z M150.2,35.7c0,2.3-0.9,3.2-2.6,3.2c-1.6,0-2.6-1-2.6-3.2V19.7c0-2.3,0.9-3.2,2.6-3.2
		c1.6,0,2.6,1,2.6,3.2V35.7z"/>
	<path d="M306.2,13.4c-4.1,0-6,2.7-6,7.3v13.9c0,4.6,1.9,7.3,6,7.3c4.1,0,6-2.7,6-7.3V20.7C312.1,16.1,310.2,13.4,306.2,13.4z"/>
	<polygon points="263.2,13.8 259.6,31.8 268.4,31.8 264.8,13.8 	"/>
	<path d="M206.5,0v55.4h144.6V0H206.5z M234.1,36c0,5-2.4,7.8-8,7.8h-7.8V11.6h7.4c5.5,0,8,2.6,8,7.5v1.5c0,4.2-2.5,6.1-6.3,6.3v0.5
		c4.2,0.2,6.6,2.3,6.6,6.5V36z M252.7,13.8h-11v12.4h10.7v2.2h-10.7v13.2h11l-0.5,2.2h-12.8V11.6h13.2V13.8z M270.9,43.8l-2-9.9
		h-9.7l-2,9.9h-2.2l6.6-32.2h5.1l6.6,32.2H270.9z M292.9,22.5h-2.3v-2.4c0-4.3-1.7-6.7-5.7-6.7s-5.7,2.7-5.7,7.3v13.9
		c0,4.6,1.7,7.3,5.7,7.3s5.7-2.4,5.7-6.7v-2.7h2.3v2.7c0,5.6-2.8,8.8-8,8.8c-5.1,0-8-3.5-8-9.5V20.7c0-5.9,2.8-9.5,8-9.5
		c5.1,0,8,3.2,8,8.8V22.5z M314.4,34.7c0,5.9-3.1,9.5-8.2,9.5s-8.2-3.6-8.2-9.5V20.7c0-5.9,3.1-9.5,8.2-9.5s8.2,3.6,8.2,9.5V34.7z
		 M337,43.8h-4.9l-8.3-30.2h-1v30.2h-2.2V11.6h4.9l8.3,30.2h1V11.6h2.2V43.8z M342.5,12.1h-0.9v2.3h-0.6v-2.3h-0.9v-0.5h2.4V12.1z
		 M346.1,14.4h-0.5v-2.3l-0.8,2.3h-0.5l-0.8-2.3v2.3H343v-2.8h0.8l0.7,2l0.7-2h0.8V14.4z"/>
	<polygon points="169.2,38.2 168.6,38.2 166.2,11.6 159.2,11.6 163,43.8 174.2,43.8 177.8,11.6 171.6,11.6 	"/>
	<path d="M226,28.2h-5.5v13.4h5.5c4.3,0,5.8-1.7,5.8-5.6v-2.2C231.8,30,230.3,28.2,226,28.2z"/>
	<polygon points="180.6,43.8 195.9,43.8 195.9,38.2 187.4,38.2 187.4,30.2 195.4,30.2 195.4,24.8 187.4,24.8 187.4,17.2 195.9,17.2 
		195.9,11.6 180.6,11.6 	"/>
	<path d="M231.5,20.7v-1.5c0-3.8-1.6-5.4-5.8-5.4h-5.2v12.3h5.2C229.9,26.1,231.5,24.5,231.5,20.7z"/>
</g>
</svg>
