<?xml version="1.0" encoding="utf-8"?>
<!-- Generator: Adobe Illustrator 25.0.0, SVG Export Plug-In . SVG Version: 6.00 Build 0)  -->
<svg version="1.1" id="Layer_1" xmlns="http://www.w3.org/2000/svg" xmlns:xlink="http://www.w3.org/1999/xlink" x="0px" y="0px"
	 viewBox="0 0 394.3 55.4" style="enable-background:new 0 0 394.3 55.4;" xml:space="preserve">
<style type="text/css">
	.st0{fill:#FFFFFF;}
</style>
<g>
	<path class="st0" d="M65.3,11.1c-6.1,0-9.2,3.4-9.2,9.7v14.8c0,5.9,2.4,8.7,7.7,8.7c4.4,0,6.2-1.9,6.4-6.4h0.5l0.9,5.9h3V26h-9.2
		v4.9h2.7v4.8c0,2.3-0.9,3.2-2.6,3.2c-1.8,0-2.6-1-2.6-3.2V19.7c0-2.3,0.9-3.2,2.5-3.2c1.6,0,2.5,1,2.5,3.2v3.4h6.7v-2.7
		C74.6,14.3,71.5,11.1,65.3,11.1z"/>
	<polygon class="st0" points="90.4,24.9 85.7,24.9 85.7,11.6 78.9,11.6 78.9,43.8 85.7,43.8 85.7,30.3 90.4,30.3 90.4,43.8 
		97.2,43.8 97.2,11.6 90.4,11.6 	"/>
	<path class="st0" d="M32.9,11.6H22.5v32.2h6.8V31h2.3c2,0,2.8,0.8,2.8,3.3v9.5h6.8v-9.3c0-4.1-1.4-5.9-5.2-6.3v-0.6
		c3.8-0.4,5.2-2.2,5.2-6.3v-1.3C41.1,14.1,38.9,11.6,32.9,11.6z M34.4,22c0,2.6-0.9,3.4-3.1,3.4h-1.9v-8.4h2.3c2,0,2.8,0.8,2.8,3.3
		V22z"/>
	<path class="st0" d="M13.4,27.4v-0.6c3.8-0.4,5.2-2.2,5.2-6.3v-0.5c0-6-2.2-8.5-8.2-8.5H0v32.2h10.6c6,0,8.2-2.5,8.2-8.5v-1.6
		C18.8,29.6,17.4,27.8,13.4,27.4z M6.8,17.1h2.4c2,0,2.8,0.8,2.8,3.3v0.8c0,2.6-0.9,3.4-3.1,3.4H6.8V17.1z M12.1,35
		c0,2.6-0.8,3.3-2.8,3.3H6.8v-8.1h2.5c2,0,2.8,0.8,2.8,3.3V35z"/>
	<polygon class="st0" points="99.4,17.2 104.2,17.2 104.2,43.8 110.9,43.8 110.9,17.2 115.7,17.2 115.7,11.6 99.4,11.6 	"/>
	<rect x="45.2" y="11.6" class="st0" width="6.8" height="32.2"/>
	<path class="st0" d="M147.6,11.1c-6.1,0-9.3,3.4-9.3,9.7v13.8c0,6.3,3.2,9.7,9.3,9.7c6.1,0,9.3-3.4,9.3-9.7V20.8
		C157,14.5,153.8,11.1,147.6,11.1z M150.2,35.7c0,2.3-0.9,3.2-2.6,3.2c-1.6,0-2.6-1-2.6-3.2V19.7c0-2.3,0.9-3.2,2.6-3.2
		c1.6,0,2.6,1,2.6,3.2V35.7z"/>
	<path class="st0" d="M330.3,13.8h-5v27.8h5c4.3,0,6-1.9,6-7V20.7C336.3,15.7,334.7,13.8,330.3,13.8z"/>
	<path class="st0" d="M372,13.8h-5.4V27h5.4c4.2,0,5.8-1.5,5.8-5.4v-2.5C377.8,15.3,376.2,13.8,372,13.8z"/>
	<path class="st0" d="M206.5,0v55.4h187.8V0H206.5z M231.7,14.9l-12.6,26v0.8h12.6v2.2h-14.8v-3.3l12.6-26v-0.8h-12.6v-2.2h14.8
		V14.9z M250.5,13.8h-11v12.4h10.7v2.2h-10.7v13.2h11v2.2h-13.2V11.6h13.2V13.8z M273.2,43.8h-4.9L260,13.6h-1v30.2h-2.2V11.6h4.9
		l8.3,30.2h1V11.6h2.2V43.8z M295.3,22.5h-2.3v-2.4c0-4.3-1.7-6.7-5.7-6.7s-5.7,2.7-5.7,7.3v13.9c0,4.6,1.7,7.3,5.7,7.3
		s5.7-2.4,5.7-6.7v-2.7h2.3v2.7c0,5.6-2.8,8.8-8,8.8s-8-3.5-8-9.5V20.7c0-5.9,2.8-9.5,8-9.5s8,3.2,8,8.8V22.5z M316.9,34.7
		c0,5.9-3.1,9.5-8.2,9.5s-8.2-3.6-8.2-9.5V20.7c0-5.9,3.1-9.5,8.2-9.5s8.2,3.6,8.2,9.5V34.7z M338.6,34.7c0,6.3-2.7,9.1-8.2,9.1
		h-7.3V11.6h7.3c5.5,0,8.2,2.9,8.2,9.1V34.7z M358,13.8h-11v12.4h10.7v2.2h-10.7v13.2h11v2.2h-13.2V11.6H358V13.8z M380,21.6
		c0,4.2-2.5,6.1-6.3,6.3v0.5c3.8,0.2,6.3,2.1,6.3,6.3v9.1h-2.3v-9.2c0-3.8-1.6-5.4-5.8-5.4h-5.4v14.6h-2.3V11.6h7.7
		c5.5,0,8,2.6,8,7.5V21.6z M385.5,12.1h-0.9v2.3H384v-2.3h-0.9v-0.5h2.4V12.1z M389,14.4h-0.5v-2.3l-0.8,2.3h-0.5l-0.8-2.3v2.3H386
		v-2.8h0.8l0.7,2l0.7-2h0.8V14.4z"/>
	<path class="st0" d="M126.2,11.1c-5.9,0-9.1,3.4-9.1,9.7v13.8c0,6.3,3.2,9.7,9.1,9.7c6,0,9.1-3.2,9.1-9.3V31h-6.7v4.6
		c0,2.3-0.9,3.2-2.4,3.2c-1.5,0-2.4-1-2.4-3.2V19.7c0-2.3,0.9-3.2,2.4-3.2c1.5,0,2.4,1,2.4,3.2v4.3h6.7v-3.6
		C135.3,14.3,132.2,11.1,126.2,11.1z"/>
	<path class="st0" d="M308.6,13.4c-4.1,0-6,2.7-6,7.3v13.9c0,4.6,1.9,7.3,6,7.3c4.1,0,6-2.7,6-7.3V20.7
		C314.6,16.1,312.7,13.4,308.6,13.4z"/>
	<polygon class="st0" points="180.7,43.8 195.9,43.8 195.9,38.2 187.4,38.2 187.4,30.2 195.4,30.2 195.4,24.8 187.4,24.8 
		187.4,17.2 195.9,17.2 195.9,11.6 180.7,11.6 	"/>
	<polygon class="st0" points="169.2,38.2 168.6,38.2 166.2,11.6 159.2,11.6 163,43.8 174.2,43.8 177.8,11.6 171.6,11.6 	"/>
</g>
</svg>
