<?xml version="1.0" encoding="utf-8"?>
<!-- Generator: Adobe Illustrator 25.0.0, SVG Export Plug-In . SVG Version: 6.00 Build 0)  -->
<svg version="1.1" id="Layer_1" xmlns="http://www.w3.org/2000/svg" xmlns:xlink="http://www.w3.org/1999/xlink" x="0px" y="0px"
	 viewBox="0 0 291.3 55.4" style="enable-background:new 0 0 291.3 55.4;" xml:space="preserve">
<path d="M13.4,27.4v-0.6c3.8-0.4,5.2-2.2,5.2-6.3v-0.5c0-6-2.2-8.5-8.2-8.5H0v32.2h10.6c6,0,8.2-2.5,8.2-8.5v-1.6
	C18.7,29.6,17.3,27.8,13.4,27.4z M6.7,17.1h2.4c2,0,2.8,0.8,2.8,3.3v0.8c0,2.6-0.9,3.4-3.1,3.4H6.7V17.1z M12,35
	c0,2.6-0.8,3.3-2.8,3.3H6.7v-8.1h2.5c2,0,2.8,0.8,2.8,3.3V35z M170.7,11.6h6.2l-3.6,32.2h-11.1l-3.7-32.2h7l2.4,26.6h0.6L170.7,11.6
	z M179.7,11.6h15.2v5.6h-8.5v7.7h7.9v5.4h-7.9v8h8.5v5.6h-15.2V11.6z M134.6,20.5v3.6H128v-4.3c0-2.3-0.9-3.2-2.4-3.2
	c-1.5,0-2.4,1-2.4,3.2v15.9c0,2.3,0.9,3.2,2.4,3.2c1.5,0,2.4-1,2.4-3.2V31h6.7v3.9c0,6.2-3.1,9.3-9.1,9.3c-5.9,0-9.1-3.4-9.1-9.7
	V20.8c0-6.3,3.2-9.7,9.1-9.7C131.6,11.1,134.6,14.3,134.6,20.5z M98.9,11.6h16.1v5.6h-4.7v26.6h-6.7V17.2h-4.7V11.6z M74.2,20.5v2.7
	h-6.7v-3.4c0-2.3-0.9-3.2-2.5-3.2c-1.6,0-2.5,1-2.5,3.2v15.9c0,2.3,0.9,3.2,2.6,3.2c1.8,0,2.6-1,2.6-3.2v-4.8H65V26h9.1v17.8h-2.9
	l-0.9-5.9h-0.5c-0.2,4.5-2,6.4-6.4,6.4c-5.3,0-7.7-2.8-7.7-8.7V20.8c0-6.3,3.1-9.7,9.2-9.7C71.1,11.1,74.2,14.3,74.2,20.5z
	 M32.7,11.6H22.4v32.2h6.7V31h2.2c2,0,2.8,0.8,2.8,3.3v9.5h6.7v-9.3c0-4.1-1.4-5.9-5.2-6.3v-0.6c3.8-0.4,5.2-2.2,5.2-6.3v-1.3
	C40.9,14.1,38.7,11.6,32.7,11.6z M34.2,22c0,2.6-0.9,3.4-3.1,3.4h-1.9v-8.4h2.2c2,0,2.8,0.8,2.8,3.3V22z M44.9,11.6h6.7v32.2h-6.7
	V11.6z M146.9,11.1c-6.1,0-9.3,3.4-9.3,9.7v13.8c0,6.3,3.2,9.7,9.3,9.7s9.3-3.4,9.3-9.7V20.8C156.2,14.5,153,11.1,146.9,11.1z
	 M149.4,35.7c0,2.3-0.9,3.2-2.6,3.2c-1.6,0-2.6-1-2.6-3.2V19.7c0-2.3,0.9-3.2,2.6-3.2c1.6,0,2.6,1,2.6,3.2V35.7z M89.9,11.6h6.7
	v32.2h-6.7V30.3h-4.7v13.5h-6.7V11.6h6.7v13.3h4.7V11.6z M291.3,55.4V0h-85.9v55.4H291.3z M264,11.6h13.2v2.2h-10.9v12.4h10.6v2.2
	h-10.6v13.2h10.9v2.2H264V11.6z M243.9,11.6l5.9,30h1.1l5.9-30h2.2l-6.4,32.2H248l-6.4-32.2H243.9z M234.4,11.6h2.2v32.2h-2.2V11.6z
	 M217.1,11.6h2.2v30H230v2.2h-12.8V11.6z M280.3,12v-0.5h2.4V12h-0.9v2.3h-0.6V12H280.3z M284,11.5l0.7,2l0.7-2h0.8v2.8h-0.5V12
	l-0.8,2.3h-0.5l-0.8-2.3v2.3h-0.5v-2.8H284z"/>
</svg>
