<?xml version="1.0" encoding="utf-8"?>
<!-- Generator: Adobe Illustrator 25.0.0, SVG Export Plug-In . SVG Version: 6.00 Build 0)  -->
<svg version="1.1" id="Layer_1" xmlns="http://www.w3.org/2000/svg" xmlns:xlink="http://www.w3.org/1999/xlink" x="0px" y="0px"
	 viewBox="0 0 340.9 55.4" style="enable-background:new 0 0 340.9 55.4;" xml:space="preserve">
<style type="text/css">
	.st0{fill:#FFFFFF;}
</style>
<g>
	<path class="st0" d="M65.3,11.1c-6.1,0-9.2,3.4-9.2,9.7v14.8c0,5.9,2.4,8.7,7.7,8.7c4.4,0,6.2-1.9,6.4-6.4h0.5l0.9,5.9h3V26h-9.2
		v4.9h2.7v4.8c0,2.3-0.9,3.2-2.6,3.2c-1.8,0-2.6-1-2.6-3.2V19.7c0-2.3,0.9-3.2,2.5-3.2c1.6,0,2.5,1,2.5,3.2v3.4h6.7v-2.7
		C74.6,14.3,71.5,11.1,65.3,11.1z"/>
	<polygon class="st0" points="90.4,24.9 85.7,24.9 85.7,11.6 78.9,11.6 78.9,43.8 85.7,43.8 85.7,30.3 90.4,30.3 90.4,43.8 
		97.2,43.8 97.2,11.6 90.4,11.6 	"/>
	<path class="st0" d="M13.4,27.4v-0.6c3.8-0.4,5.2-2.2,5.2-6.3v-0.5c0-6-2.2-8.5-8.2-8.5H0v32.2h10.6c6,0,8.2-2.5,8.2-8.5v-1.6
		C18.8,29.6,17.4,27.8,13.4,27.4z M6.8,17.1h2.4c2,0,2.8,0.8,2.8,3.3v0.8c0,2.6-0.9,3.4-3.1,3.4H6.8V17.1z M12.1,35
		c0,2.6-0.8,3.3-2.8,3.3H6.8v-8.1h2.5c2,0,2.8,0.8,2.8,3.3V35z"/>
	<polygon class="st0" points="99.4,17.2 104.2,17.2 104.2,43.8 110.9,43.8 110.9,17.2 115.7,17.2 115.7,11.6 99.4,11.6 	"/>
	<path class="st0" d="M32.9,11.6H22.5v32.2h6.8V31h2.3c2,0,2.8,0.8,2.8,3.3v9.5h6.8v-9.3c0-4.1-1.4-5.9-5.2-6.3v-0.6
		c3.8-0.4,5.2-2.2,5.2-6.3v-1.3C41.1,14.1,38.9,11.6,32.9,11.6z M34.4,22c0,2.6-0.9,3.4-3.1,3.4h-1.9v-8.4h2.3c2,0,2.8,0.8,2.8,3.3
		V22z"/>
	<rect x="45.2" y="11.6" class="st0" width="6.8" height="32.2"/>
	<polygon class="st0" points="259.1,13.8 255.4,31.8 264.2,31.8 260.6,13.8 	"/>
	<path class="st0" d="M318.6,13.8h-5.4V27h5.4c4.2,0,5.8-1.5,5.8-5.4v-2.5C324.3,15.3,322.7,13.8,318.6,13.8z"/>
	<path class="st0" d="M225.3,13.8h-4.8v15.1h4.8c4.2,0,5.8-1.5,5.8-5.3v-4.4C231.1,15.3,229.5,13.8,225.3,13.8z"/>
	<path class="st0" d="M126.2,11.1c-5.9,0-9.1,3.4-9.1,9.7v13.8c0,6.3,3.2,9.7,9.1,9.7c6,0,9.1-3.2,9.1-9.3V31h-6.7v4.6
		c0,2.3-0.9,3.2-2.4,3.2c-1.5,0-2.4-1-2.4-3.2V19.7c0-2.3,0.9-3.2,2.4-3.2c1.5,0,2.4,1,2.4,3.2v4.3h6.7v-3.6
		C135.3,14.3,132.2,11.1,126.2,11.1z"/>
	<path class="st0" d="M206.5,0v55.4h134.4V0H206.5z M233.2,25.5c-0.6,3.7-3.1,5.6-7.9,5.6h-4.8v12.7h-2.3V11.6h7.1
		c4.8,0,7.2,1.9,7.9,5.6V25.5z M248.8,43.8h-12.1V11.6h2.3v30h10.3L248.8,43.8z M266.7,43.8l-2-9.9H255l-2,9.9h-2.2l6.6-32.2h5.1
		l6.6,32.2H266.7z M279.4,33.8v10h-2.3v-10l-7.4-22.2h2.3l6.2,18.7h0.3l6.2-18.7h2.2L279.4,33.8z M304.6,13.8h-11v12.4h10.7v2.2
		h-10.7v13.2h11v2.2h-13.2V11.6h13.2V13.8z M326.6,21.6c0,4.2-2.5,6.1-6.3,6.3v0.5c3.8,0.2,6.3,2.1,6.3,6.3v9.1h-2.3v-9.2
		c0-3.8-1.6-5.4-5.8-5.4h-5.4v14.6h-2.3V11.6h7.7c5.5,0,8,2.6,8,7.5V21.6z M332.3,12.1h-0.9v2.3h-0.6v-2.3h-0.9v-0.5h2.4V12.1z
		 M335.8,14.4h-0.5v-2.3l-0.8,2.3H334l-0.8-2.3v2.3h-0.5v-2.8h0.8l0.7,2l0.7-2h0.8V14.4z"/>
	<path class="st0" d="M147.6,11.1c-6.1,0-9.3,3.4-9.3,9.7v13.8c0,6.3,3.2,9.7,9.3,9.7s9.3-3.4,9.3-9.7V20.8
		C157,14.5,153.8,11.1,147.6,11.1z M150.2,35.7c0,2.3-0.9,3.2-2.6,3.2c-1.6,0-2.6-1-2.6-3.2V19.7c0-2.3,0.9-3.2,2.6-3.2
		c1.6,0,2.6,1,2.6,3.2V35.7z"/>
	<polygon class="st0" points="180.6,43.8 195.9,43.8 195.9,38.2 187.4,38.2 187.4,30.2 195.4,30.2 195.4,24.8 187.4,24.8 
		187.4,17.2 195.9,17.2 195.9,11.6 180.6,11.6 	"/>
	<polygon class="st0" points="169.2,38.2 168.6,38.2 166.2,11.6 159.2,11.6 163,43.8 174.2,43.8 177.8,11.6 171.6,11.6 	"/>
</g>
</svg>
