<?xml version="1.0" encoding="utf-8"?>
<!-- Generator: Adobe Illustrator 26.3.1, SVG Export Plug-In . SVG Version: 6.00 Build 0)  -->
<svg version="1.1" xmlns="http://www.w3.org/2000/svg" xmlns:xlink="http://www.w3.org/1999/xlink" x="0px" y="0px"
	 viewBox="0 0 850 100" style="enable-background:new 0 0 850 100;" xml:space="preserve">
<g id="guides">
</g>
<g id="Layer_1">
</g>
<g id="Layer_4">
	<g>
		<path d="M138.06,20.06c-11.05,0-16.69,6.11-16.69,17.44v26.74c0,10.58,4.36,15.7,13.95,15.7c8.02,0,11.28-3.37,11.63-11.57h0.87
			l1.57,10.7h5.35V46.92h-16.57v8.84h4.94v8.6c0,4.07-1.57,5.81-4.77,5.81c-3.2,0-4.77-1.74-4.77-5.81V35.64
			c0-4.07,1.57-5.81,4.53-5.81s4.53,1.74,4.53,5.81v6.16h12.09v-4.88C154.75,25.81,149.22,20.06,138.06,20.06z M101.66,79.07h12.21
			V20.93h-12.21V79.07z M44.4,49.48v-1.05c6.86-0.7,9.48-4.01,9.48-11.4v-0.81c0-10.76-3.95-15.29-14.83-15.29h-18.9v58.14h19.19
			c10.87,0,14.82-4.53,14.82-15.29v-2.91C54.16,53.49,51.55,50.17,44.4,49.48z M32.36,30.81h4.36c3.66,0,5.06,1.4,5.06,6.05v1.51
			c0,4.77-1.57,6.22-5.64,6.22h-3.78V30.81z M41.96,63.14c0,4.65-1.4,6.05-5.06,6.05h-4.53V54.48h4.53c3.66,0,5.06,1.4,5.06,6.05
			V63.14z M79.57,20.93H60.85v58.14h12.21v-23.2h4.07c3.66,0,5.06,1.39,5.06,6.05v17.15H94.4V62.33c0-7.38-2.62-10.7-9.48-11.4
			v-1.05c6.86-0.7,9.48-4.01,9.48-11.4v-2.27C94.4,25.46,90.44,20.93,79.57,20.93z M82.19,39.77c0,4.77-1.57,6.22-5.64,6.22h-3.49
			V30.81h4.07c3.66,0,5.06,1.4,5.06,6.05V39.77z M183.35,44.88h-8.55V20.93H162.6v58.14h12.21V54.65h8.55v24.42h12.21V20.93h-12.21
			V44.88z M373.88,30.99V20.93h-27.62v58.14h27.62V69.01h-15.41V54.59h14.36v-9.77h-14.36V30.99H373.88z M199.63,30.99h8.55v48.08
			h12.21V30.99h8.55V20.93h-29.3V30.99z M325.68,69.01h-1.1l-4.42-48.08h-12.62l6.8,58.14h20.23l6.57-58.14h-11.28L325.68,69.01z
			 M286.67,20.06c-11.05,0-16.86,6.11-16.86,17.44v25c0,11.34,5.81,17.44,16.86,17.44c11.05,0,16.86-6.1,16.86-17.44v-25
			C303.53,26.16,297.71,20.06,286.67,20.06z M291.32,64.36c0,4.07-1.69,5.81-4.65,5.81s-4.65-1.74-4.65-5.81V35.64
			c0-4.07,1.69-5.81,4.65-5.81s4.65,1.74,4.65,5.81V64.36z M248,20.06c-10.7,0-16.45,6.11-16.45,17.44v25
			c0,11.34,5.76,17.44,16.45,17.44c10.87,0,16.45-5.76,16.45-16.86v-7.09h-12.09v8.37c0,4.07-1.57,5.81-4.3,5.81
			c-2.73,0-4.3-1.74-4.3-5.81V35.64c0-4.07,1.57-5.81,4.3-5.81c2.73,0,4.3,1.74,4.3,5.81v7.79h12.09v-6.51
			C264.46,25.81,258.88,20.06,248,20.06z"/>
		<path d="M594.59,26.28l-5.52,30.35h14.3l-5.52-30.35H594.59z M558.34,26.28h-8.84v20.06h8.84c6.92,0,9.25-2.21,9.25-8.31v-3.43
			C567.59,28.49,565.26,26.28,558.34,26.28z M393,0v100h456.82V0H393z M419.45,79.07H414V20.93h5.45V79.07z M464.51,79.07h-11.85
			L441.4,26.31h-2.11v52.76h-5.3V20.93h11.85l11.27,52.76h2.11V20.93h5.31V79.07z M501.36,26.31h-11.27v52.76h-5.45V26.31h-11.19
			v-5.38h27.91V26.31z M534.66,26.31h-18.75v20.35h18.17v5.31h-18.17v21.73h18.75v5.38h-24.2V20.93h24.2V26.31z M572.99,37.73
			c0,7.5-2.91,10.41-9.77,10.81v0.93c6.86,0.41,9.77,3.31,9.77,10.81v18.78h-5.46L567.59,60c0-6.1-2.33-8.31-9.25-8.31h-8.84v27.38
			h-5.47V20.93h14.3c10.17,0,14.65,4.3,14.65,13.49V37.73z M607.44,79.07l-3.08-17.09h-16.28L585,79.07h-5.41l10.7-58.14h11.98
			l10.7,58.14H607.44z M650.16,40.06h-5.46v-1.92c0-8.43-2.56-13.02-9.07-13.02c-6.51,0-9.07,4.59-9.07,13.02V60.7
			c0,8.43,2.56,13.02,9.07,13.02c6.51,0,9.07-4.59,9.07-13.02v-2.5h5.46v2.79c0,11.4-4.82,18.08-14.53,18.08
			s-14.54-6.69-14.54-18.08V37.85c0-11.4,4.83-18.08,14.54-18.08s14.53,6.69,14.53,18.08V40.06z M684.36,26.31h-11.27v52.76h-5.45
			V26.31h-11.19v-5.38h27.91V26.31z M698.48,79.07h-5.45V20.93h5.45V79.07z M730.27,79.07h-11.34l-10.35-58.14h5.52l9.24,52.79h2.62
			l9.24-52.79h5.41L730.27,79.07z M756.39,79.07h-5.45V20.93h5.45V79.07z M792.87,26.31h-11.27v52.76h-5.45V26.31h-11.19v-5.38
			h27.91V26.31z M816.39,61.05v18.02h-5.46V61.05l-12.91-40.12h5.47l10,31.51H814l10-31.51h5.29L816.39,61.05z M838.72,21.68h-1.47
			v3.75h-0.89v-3.75h-1.47v-0.75h3.84V21.68z M844.36,25.43h-0.83V21.8l-1.25,3.63h-0.72l-1.26-3.63v3.63h-0.83v-4.5h1.29l1.15,3.22
			l1.16-3.22h1.28V25.43z"/>
	</g>
</g>
<g id="spacing">
</g>
</svg>
